<svg width="724" height="724" viewBox="0 0 724 724" fill="none" xmlns="http://www.w3.org/2000/svg">
<path d="M671.711 447.807C665.141 447.807 659.041 449.818 653.879 453.237C652.74 435.607 638.058 421.663 620.092 421.663C614.394 421.663 609.031 423.071 604.339 425.551C604.339 425.283 604.339 424.948 604.339 424.679C604.339 388.614 575.044 359.318 538.978 359.318C521.213 359.318 505.191 366.357 493.392 377.821C491.784 370.111 484.544 364.48 476.164 365.419C468.656 366.223 462.69 372.525 462.22 380.033C461.617 389.217 468.924 396.792 477.974 396.792C478.644 396.792 479.248 396.725 479.851 396.658C475.829 405.105 473.617 414.624 473.617 424.612C473.617 424.881 473.617 425.149 473.617 425.417L360.324 396.859L360.19 396.926L359.989 396.859V396.926L246.696 425.484C246.696 425.216 246.696 424.948 246.696 424.679C246.696 414.691 244.417 405.239 240.462 396.725C241.065 396.792 241.735 396.859 242.339 396.859C251.389 396.859 258.629 389.284 258.092 380.1C257.623 372.525 251.657 366.29 244.149 365.486C235.769 364.547 228.596 370.178 226.92 377.888C215.122 366.424 199.033 359.385 181.335 359.385C145.269 359.385 115.974 388.681 115.974 424.747C115.974 425.015 115.974 425.35 115.974 425.618C111.281 423.138 105.918 421.73 100.22 421.73C82.2543 421.73 67.6403 435.674 66.4336 453.304C61.2717 449.885 55.1043 447.874 48.6017 447.874C29.8984 447.807 14.748 464.03 14.748 484.007V485.482C14.748 545.748 63.618 594.618 123.884 594.618H359.989H360.324H606.082C661.052 594.618 705.565 550.106 705.565 495.135V484.007C705.565 464.03 690.414 447.807 671.711 447.807Z" fill="#F2F2F2"/>
<path d="M369.308 211.166H360.593H360.258H359.923H351.208C343.834 258.762 260.708 423.673 134.008 423.673C164.443 423.673 347.521 423.673 359.923 423.673C360.392 423.673 360.593 423.673 360.593 423.673C372.995 423.673 556.073 423.673 586.508 423.673C459.808 423.673 376.682 258.762 369.308 211.166Z" fill="#F2F2F2"/>
<path d="M703.622 639.064H20.3801C16.5589 639.064 13.4082 635.913 13.4082 632.092V590.864C13.4082 587.043 16.5589 583.893 20.3801 583.893H703.622C707.443 583.893 710.593 587.043 710.593 590.864V632.092C710.593 635.98 707.443 639.064 703.622 639.064Z" fill="#F7F7F7"/>
<path d="M384.659 360.994C385.195 354.626 386.804 346.112 384.659 340.816C382.513 335.52 378.29 331.766 374 330.157C369.776 328.548 363.877 325.397 358.581 325.934C353.285 326.47 345.308 331.766 342.626 334.447C339.945 337.129 336.258 346.648 336.258 350.402C336.258 354.089 339.476 358.916 340.481 362.067C341.487 365.217 340.481 373.195 347.386 376.413C354.291 379.63 355.363 382.245 364.413 380.1C373.463 377.954 381.977 373.195 382.513 371.05C383.05 368.904 384.659 360.994 384.659 360.994Z" fill="#0E538C"/>
<path d="M362 372.859C389.82 372.859 412.613 395.652 412.613 423.472V507.537C412.613 511.023 409.73 513.905 406.244 513.905H317.755C314.269 513.905 311.387 511.023 311.387 507.537V423.472C311.387 395.585 334.179 372.859 362 372.859Z" fill="#E2E2E2"/>
<path d="M528.252 474.42H195.748V483.805H528.252V474.42Z" fill="#CCCCCC"/>
<path d="M504.386 483.807H219.68V613.926H504.386V483.807Z" fill="#CCCCCC"/>
<path d="M419.249 444.925L411.138 401.887C409.462 389.418 367.631 379.027 367.631 379.027C364.413 379.027 359.05 379.027 355.832 379.027C355.832 379.027 313.8 390.155 312.124 402.624L301.666 445.461C299.052 464.902 315.208 463.494 332.637 469.192L355.899 476.834C359.117 476.834 364.48 476.834 367.698 476.834L390.959 469.192C408.322 463.494 421.931 464.365 419.249 444.925Z" fill="#292929"/>
<path d="M408.524 412.01V412.345L406.982 478.041C406.178 478.712 405.105 479.114 403.966 479.114H318.56C318.292 479.114 318.024 479.114 317.823 479.047L316.08 412.01H408.524Z" fill="#7E9CB0"/>
<path d="M349.865 371.251L353.418 389.015L362.2 404.367L369.507 389.015L372.39 370.982L349.865 371.251Z" fill="#FCD2B1"/>
<path d="M382.111 354.291C382.111 373.598 378.759 381.173 366.692 385.598C363.609 386.737 360.324 386.603 357.173 385.665C345.308 382.179 341.889 373.397 341.889 354.291C341.889 342.024 349.062 338.068 360.19 338.068C371.318 338.068 382.111 342.024 382.111 354.291Z" fill="#FFE3CA"/>
<path d="M343.089 368.914C345.298 368.687 346.76 365.308 346.354 361.367C345.948 357.427 343.828 354.417 341.618 354.644C339.408 354.872 337.946 358.251 338.352 362.192C338.758 366.132 340.879 369.142 343.089 368.914Z" fill="#FFE3CA"/>
<path d="M386.219 362.242C386.626 358.302 385.163 354.923 382.954 354.695C380.744 354.467 378.624 357.477 378.218 361.418C377.812 365.358 379.274 368.737 381.483 368.965C383.693 369.193 385.813 366.183 386.219 362.242Z" fill="#FFE3CA"/>
<path d="M411.138 416.568L408.725 474.354C408.725 475.829 408.054 477.17 406.982 478.041C406.177 478.712 405.104 479.114 403.965 479.114H318.56C318.292 479.114 318.023 479.114 317.822 479.047C315.543 478.712 313.8 476.7 313.8 474.354L311.387 416.568C311.387 413.954 313.532 411.809 316.146 411.809H406.378C406.78 411.809 407.183 411.876 407.585 411.943C407.92 412.01 408.255 412.144 408.523 412.278C410.065 413.149 411.138 414.758 411.138 416.568Z" fill="#7E9CB0"/>
<path d="M361.128 454.444C366.089 454.444 370.11 450.423 370.11 445.462C370.11 440.5 366.089 436.479 361.128 436.479C356.166 436.479 352.145 440.5 352.145 445.462C352.145 450.423 356.166 454.444 361.128 454.444Z" fill="white"/>
<path d="M262.65 476.834H256.081C252.729 476.834 249.98 474.086 249.98 470.734V451.092H268.751V470.734C268.751 474.086 266.002 476.834 262.65 476.834Z" fill="#292929"/>
<path opacity="0.59" d="M260.104 448.813C259.768 448.813 259.5 448.679 259.232 448.545C258.964 448.344 258.763 448.076 258.562 447.808C258.227 447.271 258.025 446.601 258.025 445.863C258.025 445.126 258.428 444.322 258.897 443.852C259.366 443.316 259.768 442.981 259.969 442.713C260.238 442.445 260.305 442.311 260.439 441.975C260.506 441.707 260.573 441.305 260.573 440.903C260.573 440.098 260.238 439.093 259.969 437.953C260.506 438.154 261.042 438.489 261.511 438.892C261.981 439.294 262.383 439.83 262.584 440.433C262.852 441.037 262.986 441.707 262.919 442.445C262.919 442.847 262.785 443.182 262.584 443.584C262.383 443.919 262.182 444.255 261.914 444.523C261.444 445.059 260.975 445.327 260.707 445.595C260.439 445.863 260.238 445.998 260.104 446.266C259.969 446.534 259.835 447.003 259.835 447.405C259.768 447.875 259.768 448.344 260.104 448.813Z" fill="#292929"/>
<path d="M266.538 466.511V464.902C268.952 464.902 270.628 464.165 271.298 462.757C271.834 461.684 271.7 460.41 270.896 459.405C269.957 458.198 268.415 457.662 266.672 457.997L266.404 456.455C268.751 456.053 270.963 456.79 272.237 458.466C273.376 459.941 273.577 461.885 272.773 463.494C272.17 464.634 270.628 466.511 266.538 466.511Z" fill="#292929"/>
<path d="M455.919 447.539L452.098 448.276L448.344 427.696L449.55 423.473L452.165 427.026L455.919 447.539Z" fill="#7E9CB0"/>
<path d="M468.522 451.896L464.768 450.957L469.728 430.712L472.611 427.293L473.549 431.65L468.522 451.896Z" fill="#DCF2FF"/>
<path d="M466.98 449.617L463.092 449.148L465.505 428.367L467.919 424.68L469.393 428.836L466.98 449.617Z" fill="#CCCCCC"/>
<path d="M472.88 436.479L472.612 443.316L471.941 459.271L471.271 476.835H449.35L448.478 459.271L447.607 443.316L447.271 436.479H472.88Z" fill="#292929"/>
<path d="M472.612 443.316L471.942 459.271H448.479L447.607 443.316H472.612Z" fill="#7E9CB0"/>
<path d="M339.944 351.409C338.671 350.537 340.079 346.984 339.743 345.375C339.341 343.633 340.28 341.89 341.352 340.549C344.704 336.661 349.665 335.119 354.491 334.784C359.318 334.448 364.145 335.052 368.904 334.583C373.731 334.113 378.692 332.303 381.776 328.147C382.044 327.812 383.787 327.745 384.189 328.281C385.664 330.292 387.139 332.37 388.077 334.784C389.016 337.197 389.217 340.012 388.211 342.426C386.87 345.51 382.915 347.789 380.033 348.861C380.033 348.727 353.62 360.459 339.944 351.409Z" fill="#0E538C"/>
<path d="M375.609 347.184L381.442 359.385L384.659 345.039L375.609 347.184Z" fill="#0E538C"/>
<path d="M346.38 349.799C345.308 350.872 343.699 362 343.699 362L339.408 348.928L346.38 349.799Z" fill="#0E538C"/>
<path d="M504.253 484.008H219.814V488.566H504.253V484.008Z" fill="#CCCCCC"/>
<path d="M336.929 171.814L319.566 194.138L347.186 229.869L347.253 204.998L336.929 171.814Z" fill="#292929"/>
<path d="M383.586 171.883L400.882 194.206L373.195 229.937V204.999L383.586 171.883Z" fill="#292929"/>
<path d="M370.046 200.908L369.041 211.165H351.142L350.404 200.908H370.046Z" fill="#0E538C"/>
<path d="M360.391 33.5176C360.391 33.5176 382.38 65.092 389.687 101.359C389.821 102.029 389.955 102.7 390.089 103.37C390.223 104.041 390.357 104.711 390.424 105.381C391.43 111.348 392.033 117.448 392.033 123.548C392.033 152.844 382.916 185.893 373.665 204.998H347.252C338.001 185.826 328.549 152.776 328.549 123.481C328.549 117.448 329.152 111.348 330.158 105.314C330.292 104.644 330.426 103.974 330.493 103.303C330.627 102.633 330.761 101.962 330.895 101.292C338.336 65.092 360.391 33.5176 360.391 33.5176Z" fill="#CCE9FF"/>
<path d="M360.392 33.5176C360.392 33.5176 382.38 65.092 389.687 101.359C389.821 102.029 389.955 102.7 390.089 103.37C380.972 109.739 370.649 113.158 360.325 113.091C350.001 113.091 339.745 109.672 330.561 103.303C330.695 102.633 330.829 101.962 330.963 101.292C338.337 65.092 360.392 33.5176 360.392 33.5176Z" fill="#292929"/>
<path d="M330.962 101.293C330.828 101.963 330.694 102.634 330.56 103.304C330.426 103.974 330.292 104.645 330.225 105.315C334.515 108.265 339.073 110.544 343.766 112.153C349.129 114.03 354.76 114.969 360.324 114.969C365.955 114.969 371.519 114.03 376.882 112.22C381.575 110.611 386.133 108.332 390.424 105.382C390.29 104.712 390.223 104.041 390.089 103.371C389.955 102.701 389.82 102.03 389.686 101.36C380.905 107.661 370.916 111.281 360.324 111.281C349.732 111.214 339.744 107.661 330.962 101.293Z" fill="#292929"/>
<path d="M334.984 93.9184C337.8 83.3936 352.816 49.0706 358.179 41.5625C356.101 48.6014 338.47 90.6336 341.286 93.9184C337.599 94.3877 334.984 93.9184 334.984 93.9184Z" fill="white"/>
<path d="M363.744 171.883L363.677 218.407L360.191 229.87L356.705 218.407L356.772 171.883H363.744Z" fill="#292929"/>
<path d="M675.733 418.982C689.061 418.982 699.866 408.177 699.866 394.848C699.866 381.52 689.061 370.715 675.733 370.715C662.404 370.715 651.6 381.52 651.6 394.848C651.6 408.177 662.404 418.982 675.733 418.982Z" fill="#F2F2F2"/>
<path d="M607.69 384.123C610.837 384.123 613.389 381.572 613.389 378.425C613.389 375.278 610.837 372.727 607.69 372.727C604.543 372.727 601.992 375.278 601.992 378.425C601.992 381.572 604.543 384.123 607.69 384.123Z" fill="#F2F2F2"/>
<path d="M627.131 349.263C634.721 349.263 640.874 343.11 640.874 335.52C640.874 327.93 634.721 321.777 627.131 321.777C619.541 321.777 613.389 327.93 613.389 335.52C613.389 343.11 619.541 349.263 627.131 349.263Z" fill="#F2F2F2"/>
<path d="M67.3719 384.123C80.145 384.123 90.4997 373.768 90.4997 360.995C90.4997 348.222 80.145 337.867 67.3719 337.867C54.5988 337.867 44.2441 348.222 44.2441 360.995C44.2441 373.768 54.5988 384.123 67.3719 384.123Z" fill="#F2F2F2"/>
<path d="M116.309 384.123C119.456 384.123 122.008 381.572 122.008 378.425C122.008 375.278 119.456 372.727 116.309 372.727C113.162 372.727 110.611 375.278 110.611 378.425C110.611 381.572 113.162 384.123 116.309 384.123Z" fill="#F2F2F2"/>
<path d="M118.321 325.8C125.911 325.8 132.063 319.647 132.063 312.057C132.063 304.467 125.911 298.314 118.321 298.314C110.731 298.314 104.578 304.467 104.578 312.057C104.578 319.647 110.731 325.8 118.321 325.8Z" fill="#F2F2F2"/>
<path d="M601.122 602.328C590.195 602.328 585.569 593.547 583.692 584.296C581.614 573.838 583.156 562.643 583.156 562.643H619.087C619.087 562.643 619.154 563.045 619.222 563.849C619.825 570.486 622.037 602.328 601.122 602.328Z" fill="#7E9CB0"/>
<path d="M619.088 562.709C619.088 563.513 611.044 564.116 601.122 564.116C591.201 564.116 583.156 563.513 583.156 562.709C583.156 561.904 591.201 561.301 601.122 561.301C611.044 561.301 619.088 561.904 619.088 562.709Z" fill="#CCCCCC"/>
<path d="M556.408 463.159C556.408 463.159 575.313 491.985 586.709 509.548C598.038 527.112 601.055 530.799 602.396 536.497C603.736 542.196 604.943 563.111 604.943 563.111H606.418C606.418 563.111 607.356 545.413 605.613 539.581C603.87 533.749 604.541 531.47 605.345 525.369C606.15 519.269 607.222 509.549 601.055 502.778C594.887 496.007 596.496 489.37 594.351 484.946C592.206 480.454 575.447 475.091 573.234 470.466C571.156 465.84 561.704 463.025 556.408 463.159Z" fill="#292929"/>
<path opacity="0.26" d="M556.408 463.158C556.408 463.158 562.375 469.929 566.397 472.208C570.486 474.487 572.363 472.476 575.447 478.04C578.53 483.604 578.665 486.018 581.547 488.833C584.363 491.649 587.782 491.783 588.05 498.018C588.318 504.252 586.709 509.548 586.709 509.548C586.709 509.548 557.615 464.633 556.408 463.158Z" fill="white"/>
<path d="M600.518 563.112H599.178C599.178 563.112 598.775 553.928 595.088 549.436C592.742 546.554 582.754 543.269 572.832 539.381C567.402 537.236 561.972 534.889 557.883 532.275C546.352 524.968 535.425 501.438 534.487 497.214C534.152 495.74 534.018 494.868 534.018 494.265C534.018 493.125 534.621 492.991 535.559 491.852C536.029 491.315 537.436 491.516 539.112 491.986C544.073 493.527 548.229 496.879 550.844 501.371C553.257 505.527 557.078 510.689 561.771 511.963C569.882 514.108 569.212 515.449 572.229 523.761C575.245 532.007 582.754 533.347 592.206 543.068C601.725 552.855 600.518 563.112 600.518 563.112Z" fill="#292929"/>
<path opacity="0.26" d="M572.832 539.38C567.402 537.234 561.972 534.888 557.883 532.274C546.352 524.967 535.425 501.437 534.487 497.213C534.152 495.739 534.018 494.867 534.018 494.264C534.018 494.532 534.554 498.286 540.587 500.766C546.822 503.314 548.028 503.314 548.833 507.269C549.637 511.157 550.308 515.38 553.592 516.185C556.81 516.989 558.888 513.369 561.436 519.268C563.983 525.235 565.257 527.246 567.603 528.05C569.949 528.855 571.759 527.648 572.296 532.274C572.564 535.089 572.765 537.704 572.832 539.38Z" fill="white"/>
<path d="M601.121 602.327C590.194 602.327 585.568 593.545 583.691 584.294C594.417 580.205 607.959 573.702 619.154 563.848C619.824 570.484 622.037 602.327 601.121 602.327Z" fill="#CCE9FF"/>
<path d="M130.789 602.329C143.928 602.329 149.492 591.804 151.638 580.676C154.118 568.14 152.308 554.732 152.308 554.732H109.27C109.27 554.732 109.203 555.269 109.136 556.14C108.265 564.118 105.65 602.329 130.789 602.329Z" fill="#7E9CB0"/>
<path d="M109.203 554.799C109.203 555.737 118.856 556.475 130.722 556.475C142.588 556.475 152.241 555.737 152.241 554.799C152.241 553.86 142.588 553.123 130.722 553.123C118.856 553.123 109.203 553.86 109.203 554.799Z" fill="#CCCCCC"/>
<path d="M72.4668 435.473C72.4668 435.473 95.1924 469.997 108.801 491.114C122.409 512.231 125.962 516.588 127.638 523.359C129.247 530.197 130.722 555.335 130.722 555.335H131.728C131.728 555.335 131.392 534.018 130.119 526.845C128.912 519.873 130.186 517.393 131.191 510.085C132.197 502.778 133.47 491.114 126.096 483.003C118.722 474.891 120.666 466.981 118.052 461.618C115.438 456.255 95.3264 449.752 92.779 444.255C90.1646 438.691 78.7683 435.272 72.4668 435.473Z" fill="#292929"/>
<path opacity="0.26" d="M72.4668 435.473C72.4668 435.473 79.5727 443.584 84.4664 446.333C89.3601 449.081 91.5724 446.668 95.3264 453.305C99.0805 459.941 99.2146 462.891 102.633 466.31C106.052 469.729 110.075 469.863 110.41 477.304C110.745 484.745 108.801 491.113 108.801 491.113C108.801 491.113 73.9416 437.216 72.4668 435.473Z" fill="white"/>
<path d="M128.912 555.268H127.906C127.906 555.268 127.571 548.364 124.89 545.012C123.147 542.866 115.639 540.386 108.198 537.437C104.108 535.828 100.019 534.018 97.0024 532.074C88.3546 526.576 80.1091 508.879 79.4387 505.728C79.1706 504.655 79.1035 503.985 79.1035 503.516C79.1035 502.644 79.5728 502.51 80.2431 501.706C80.5783 501.304 81.6509 501.438 82.9246 501.84C86.6787 502.979 89.7624 505.527 91.7065 508.879C93.5165 512.029 96.3991 515.918 99.885 516.856C105.985 518.465 105.449 519.471 107.728 525.705C109.941 531.872 115.639 532.945 122.745 540.252C129.784 547.559 128.912 555.268 128.912 555.268Z" fill="#292929"/>
<path opacity="0.26" d="M108.131 537.503C104.042 535.894 99.9527 534.084 96.936 532.14C88.2882 526.643 80.0427 508.945 79.3723 505.794C79.1041 504.722 79.0371 504.051 79.0371 503.582C79.0371 503.783 79.4393 506.599 83.9308 508.476C88.6234 510.42 89.4949 510.42 90.0982 513.369C90.7015 516.319 91.2378 519.47 93.6512 520.073C96.0645 520.676 97.6064 517.928 99.5504 522.419C101.495 526.911 102.433 528.386 104.176 528.989C105.919 529.592 107.327 528.654 107.662 532.14C107.93 534.218 108.064 536.229 108.131 537.503Z" fill="white"/>
<path d="M136.353 555.268H137.559C137.559 555.268 139.906 512.499 143.19 508.544C145.269 505.996 152.173 501.371 161.022 497.885C165.849 495.941 170.676 493.862 174.296 491.583C184.552 485.081 194.273 464.165 195.077 460.411C195.345 459.137 195.479 458.333 195.479 457.797C195.479 456.791 194.943 456.657 194.071 455.651C193.669 455.182 192.396 455.316 190.921 455.785C186.496 457.126 182.809 460.143 180.463 464.165C178.318 467.852 174.899 472.478 170.743 473.617C163.503 475.561 164.106 476.768 161.491 484.075C158.81 491.449 152.106 492.589 143.727 501.304C135.28 509.884 136.353 555.268 136.353 555.268Z" fill="#292929"/>
<path opacity="0.26" d="M160.955 497.951C165.782 496.007 170.608 493.929 174.228 491.65C184.485 485.147 194.205 464.232 195.01 460.478C195.278 459.204 195.412 458.4 195.412 457.863C195.412 458.131 194.876 461.416 189.58 463.628C184.083 465.908 182.943 465.908 182.273 469.394C181.535 472.88 180.932 476.634 178.05 477.304C175.167 478.041 173.357 474.757 171.078 480.053C168.798 485.348 167.726 487.158 165.581 487.896C163.502 488.633 161.894 487.561 161.424 491.65C161.223 494.063 161.022 496.477 160.955 497.951Z" fill="white"/>
<path d="M130.789 602.329C143.929 602.329 149.493 591.804 151.638 580.676C138.767 575.783 122.544 567.939 109.069 556.141C108.265 564.118 105.65 602.329 130.789 602.329Z" fill="#CCE9FF"/>
</svg>
