<svg width="600" height="600" viewBox="0 0 600 600" fill="none" xmlns="http://www.w3.org/2000/svg">
<path opacity="0.3" d="M488.373 389.935C488.373 389.935 475.04 368.682 501.706 324.784C528.371 280.885 528.87 139.382 403.627 179.302C278.384 219.222 217.444 242.512 136.724 193.959C-20.768 99.2274 90.0598 389.935 90.0598 389.935H488.373Z" fill="#CCCCCC"/>
<path opacity="0.5" d="M189.916 146.399L221.144 219.671L243.969 204.057L257.195 223.277L259.583 190.855L287.205 174.023L189.916 146.399Z" fill="#CCCCCC"/>
<path opacity="0.1" d="M249.028 200.589L221.144 219.671L243.969 204.057L257.195 223.277L259.583 190.855L215.566 164.641L249.028 200.589Z" fill="#0B4870"/>
<path opacity="0.1" d="M258.998 198.802L215.566 164.641L259.583 190.855L258.998 198.802Z" fill="#0B4870"/>
<path d="M257.754 232.415C257.508 230.987 257.196 229.564 256.826 228.182L258.967 227.608C259.355 229.055 259.681 230.546 259.938 232.038L257.754 232.415Z" fill="#CCCCCC"/>
<path d="M231.897 282.185C228.679 281.969 225.6 280.943 222.994 279.214L224.219 277.367C226.504 278.882 229.21 279.782 232.044 279.972L231.897 282.185ZM241.105 280.377L240.127 278.387C242.432 277.254 244.664 275.497 246.758 273.166L248.407 274.646C246.122 277.19 243.665 279.119 241.105 280.377ZM216.825 272.135C215.573 269.602 214.913 266.817 214.914 264.082C214.914 263.858 214.919 263.632 214.928 263.409L214.954 262.928L217.165 263.09L217.143 263.494C217.135 263.693 217.131 263.888 217.131 264.082C217.13 266.48 217.711 268.925 218.812 271.155L216.825 272.135ZM302.591 271.63L302.581 269.413C305.468 269.399 308.44 269.281 311.411 269.062L311.574 271.273C308.552 271.495 305.53 271.615 302.591 271.63ZM293.6 271.339L292.184 271.229C289.46 271.003 286.99 270.695 284.636 270.289L285.013 268.104C287.303 268.5 289.708 268.799 292.368 269.021L293.754 269.126L293.6 271.339ZM320.505 270.331L320.206 268.134C323.057 267.746 325.996 267.26 328.941 266.693L329.361 268.869C326.376 269.444 323.397 269.936 320.505 270.331ZM275.827 268.09C273.222 267.204 270.78 266.121 268.567 264.872C268.22 264.677 267.873 264.474 267.53 264.267L268.675 262.369C268.998 262.565 269.324 262.755 269.654 262.94C271.749 264.124 274.066 265.15 276.541 265.993L275.827 268.09ZM253.705 267.206L251.783 266.102C253.22 263.604 254.449 260.945 255.44 258.198L257.525 258.949C256.49 261.818 255.206 264.596 253.705 267.206ZM338.122 266.961L337.6 264.807C340.372 264.135 343.258 263.371 346.174 262.536L346.785 264.668C343.839 265.51 340.925 266.281 338.122 266.961ZM355.347 262.052L354.664 259.944C357.481 259.031 360.286 258.074 363.074 257.084L363.815 259.172C361.008 260.17 358.185 261.133 355.347 262.052ZM260.13 259.131C258.09 257.645 255.9 256.086 253.53 254.789L252.788 254.396L253.803 252.426C254.067 252.561 254.332 252.702 254.593 252.845C257.08 254.205 259.43 255.878 261.435 257.339L260.13 259.131ZM220.271 255.797L218.721 254.212C220.673 252.302 223.341 250.87 226.88 249.835L227.625 251.926C224.366 252.88 221.934 254.17 220.271 255.797ZM244.691 251.47C242.171 250.906 239.586 250.619 237.008 250.619L236.11 250.631L236.055 248.414C239.106 248.34 242.186 248.636 245.176 249.307L244.691 251.47ZM259.866 250.164L257.683 249.776C258.191 246.911 258.455 243.99 258.471 241.096L260.687 241.107C260.672 244.126 260.396 247.174 259.866 250.164Z" fill="#CCCCCC"/>
<path d="M372.301 256.046L371.514 253.975C372.893 253.448 374.272 252.915 375.646 252.378L376.452 254.443C375.073 254.982 373.689 255.518 372.301 256.046Z" fill="#CCCCCC"/>
<path d="M464.476 299.117C463.348 299.117 462.383 298.26 462.272 297.113C462.153 295.896 463.045 294.812 464.264 294.694C477.661 293.396 489.985 287.001 498.968 276.686C499.773 275.761 501.174 275.668 502.094 276.471C503.018 277.274 503.116 278.674 502.311 279.598C492.582 290.771 479.222 297.7 464.693 299.106C464.619 299.114 464.548 299.117 464.476 299.117Z" fill="#CCCCCC"/>
<path d="M415.071 308.516L337.843 354.058L260.615 308.516C260.615 308.478 260.615 308.428 260.628 308.39C260.691 308.101 264.954 304.543 271.454 299.262C271.517 299.212 271.567 299.162 271.63 299.111C292.955 281.797 337.843 246.339 337.843 246.339C337.843 246.339 382.731 281.797 404.056 299.111C410.657 304.468 414.995 308.089 415.059 308.39C415.071 308.428 415.071 308.478 415.071 308.516Z" fill="#292929"/>
<path opacity="0.4" d="M415.071 308.516L337.843 354.058L260.615 308.516C260.615 308.478 260.615 308.428 260.628 308.39C260.691 308.101 264.954 304.543 271.454 299.262C271.517 299.212 271.567 299.162 271.63 299.111C292.955 281.797 337.843 246.339 337.843 246.339C337.843 246.339 382.731 281.797 404.056 299.111C410.657 304.468 414.995 308.089 415.059 308.39C415.071 308.428 415.071 308.478 415.071 308.516Z" fill="#0B4870"/>
<path d="M369.604 208.623H286.28C279.134 208.623 273.34 214.416 273.34 221.563V347.548C273.34 354.695 279.134 360.488 286.28 360.488H390.688C397.835 360.488 403.629 354.694 403.629 347.548V242.648L369.604 208.623Z" fill="#CCCCCC"/>
<path d="M369.604 229.706C369.604 236.854 375.397 242.647 382.544 242.647H403.628L369.604 208.623V229.706Z" fill="#CCCCCC"/>
<path d="M326.404 229.918H297.657C295.111 229.918 293.047 231.982 293.047 234.528V263.275C293.047 265.821 295.111 267.885 297.657 267.885H326.404C328.95 267.885 331.014 265.821 331.014 263.275V234.528C331.014 231.982 328.95 229.918 326.404 229.918Z" fill="#292929"/>
<path d="M365.785 278.436H296.808C294.757 278.436 293.094 280.098 293.094 282.149C293.094 284.201 294.757 285.864 296.808 285.864H365.785C367.836 285.864 369.499 284.201 369.499 282.149C369.499 280.098 367.837 278.436 365.785 278.436Z" fill="#292929"/>
<path d="M365.785 296.938H296.808C294.757 296.938 293.094 298.6 293.094 300.651C293.094 302.703 294.757 304.366 296.808 304.366H365.785C367.836 304.366 369.499 302.703 369.499 300.651C369.499 298.6 367.837 296.938 365.785 296.938Z" fill="#292929"/>
<path d="M334.459 314.887H296.808C294.757 314.887 293.094 316.549 293.094 318.601C293.094 320.652 294.757 322.315 296.808 322.315H334.459C336.51 322.315 338.173 320.652 338.173 318.601C338.173 316.549 336.51 314.887 334.459 314.887Z" fill="#292929"/>
<path d="M415.078 308.513V382.603C415.078 387.782 410.845 392.014 405.667 392.014H270.009C264.83 392.014 260.623 387.782 260.623 382.603V308.513L337.85 354.048L415.078 308.513Z" fill="#292929"/>
<path opacity="0.2" d="M412.467 389.065L362.761 339.359L337.85 354.046L312.928 339.352L263.219 389.061C264.93 390.869 267.332 392.013 270.008 392.013H405.667C408.342 392.014 410.75 390.871 412.467 389.065Z" fill="#0B4870"/>
<path opacity="0.5" d="M455.478 189.959C433.247 192.141 415.486 210.465 413.896 232.747C413.105 243.836 416.248 254.136 422.034 262.469C424.214 265.608 424.572 269.664 423.106 273.194L419.44 282.02L434.426 278.135C436.868 277.502 439.448 277.7 441.763 278.704C448.711 281.717 456.533 283.09 464.756 282.294C486.576 280.182 504.232 262.56 506.339 240.739C509.168 211.464 484.762 187.085 455.478 189.959Z" fill="#0B4870"/>
<path d="M461.319 259.567L463.869 257.017C463.869 257.017 461.844 252.244 470.334 244.196C475.388 239.405 476.519 234.766 476.108 230.974C475.454 224.937 470.524 220.007 464.486 219.353C460.694 218.942 456.055 220.073 451.265 225.126C443.216 233.617 438.443 231.592 438.443 231.592L435.893 234.142L461.319 259.567Z" fill="#292929"/>
<path d="M441.645 243.994C439.628 246.747 439.855 250.63 442.343 253.117C444.831 255.605 448.714 255.833 451.467 253.815L441.645 243.994Z" fill="#292929"/>
<path d="M477.89 222.448L476.302 224.036C475.066 222.071 473.387 220.392 471.408 219.168L473.009 217.567C474.363 216.213 476.549 216.214 477.903 217.567C479.243 218.908 479.243 221.094 477.89 222.448Z" fill="#292929"/>
<path d="M192.564 168.127L202.693 191.371C203.208 192.556 202.663 193.934 201.477 194.446L201.116 194.602C199.924 195.116 198.542 194.561 198.038 193.365L188.27 169.965C187.753 168.738 188.364 167.328 189.613 166.867C190.775 166.438 192.07 166.99 192.564 168.127Z" fill="#CCCCCC"/>
<path d="M543.256 404.611C543.256 412.717 536.685 419.288 528.579 419.288H79.5517C71.4461 419.288 64.875 412.717 64.875 404.611C64.875 396.506 71.4461 389.935 79.5517 389.935H528.579C536.685 389.935 543.256 396.506 543.256 404.611Z" fill="#CCCCCC"/>
<path d="M239.426 370.604C238.885 370.129 238.296 369.638 237.641 369.113C231.04 363.823 191.357 341.762 180.171 336.619C179.406 336.268 178.413 336.33 177.368 336.711C176.494 336.872 175.553 337.3 174.537 338.092C165.746 344.94 116.913 377.413 117.895 379.202C120.448 383.853 147.777 372.922 164.532 363.643C169.661 360.803 173.731 358.646 178.19 356.267C180.932 358.259 186.68 363.099 193.24 368.376C203.051 376.269 214.564 385.097 220.182 386.653C227.47 388.668 232.777 388.569 236.724 385.834C244.618 380.349 247.435 377.581 239.426 370.604Z" fill="#0B4870"/>
<path d="M236.726 385.836C232.778 388.571 227.472 388.669 220.184 386.655C214.566 385.099 203.053 376.271 193.242 368.377C210.57 368.541 230.584 370.506 237.807 370.588C238.347 370.604 238.888 370.604 239.428 370.604C247.437 377.581 244.619 380.349 236.726 385.836Z" fill="#0B4870"/>
<path d="M219.519 338.743C217.418 336.991 212.329 331.922 209.698 329.278C208.174 327.745 207.844 325.277 209.164 323.564C209.287 323.404 209.424 323.249 209.575 323.1C210.685 322.008 211.389 323.138 212.543 323.907C217.895 327.473 228.774 332.367 234.111 333.886C239.708 335.478 241.569 339.457 237.58 345.196C235.325 348.439 225.617 343.831 219.519 338.743Z" fill="#CCCCCC"/>
<path d="M268.53 336.778C268.53 336.86 268.514 336.942 268.514 337.024C268.252 340.709 267.908 344.328 267.548 347.768C266.222 360.51 264.567 370.582 264.567 370.582H231.68C225.375 370.582 220.56 364.981 221.526 358.757C222.411 353.008 223.377 345.54 224.015 337.22C224.081 336.319 224.147 335.418 224.212 334.501C224.622 328.491 224.818 322.12 224.671 315.667V315.601C224.588 311.835 224.392 308.035 224.048 304.268C224.228 301.942 220.396 291.542 233.351 291.018L252.12 290.232C258.835 289.937 264.158 294.671 266.68 300.681C266.925 301.255 267.139 301.877 267.352 302.548C269.677 310.213 269.513 323.774 268.53 336.778Z" fill="#CCCCCC"/>
<path opacity="0.1" d="M268.531 336.779C268.531 336.86 268.515 336.943 268.515 337.024L262.864 334.469L259.949 300.256L267.352 302.549C269.678 310.214 269.514 323.774 268.531 336.779Z" fill="#0B4870"/>
<path opacity="0.1" d="M268.535 336.774C268.267 340.539 267.916 344.253 267.548 347.767C266.109 347.098 264.72 346.362 263.466 345.576C262.027 344.689 259.316 342.731 256.756 340.841L251.201 336.708C251.385 337.277 251.285 337.728 250.95 337.963V337.979C250.749 338.13 250.465 338.181 250.147 338.163L225.401 335.536C224.815 335.436 224.43 335.051 224.213 334.499C224.615 328.492 224.815 322.117 224.665 315.659V315.609L247.085 326.033C247.32 326.083 247.553 326.133 247.788 326.2C249.746 326.736 251.201 329.028 252.389 330.918C253.008 330.935 253.644 331.487 254.464 331.872C257.945 333.545 263.482 335.402 268.535 336.774Z" fill="#0B4870"/>
<path d="M205.896 313.005C205.914 313.167 205.953 313.333 206.014 313.504L213.74 332.181C214.107 333.051 215.118 333.766 215.994 333.781L248.634 334.744C248.955 334.736 249.235 334.659 249.43 334.505L249.431 334.486C249.736 334.217 249.81 333.761 249.586 333.219L241.86 314.521C241.514 313.676 240.503 312.961 239.628 312.946L206.987 311.983C206.281 311.966 205.866 312.387 205.896 313.005Z" fill="#292929"/>
<path d="M121.412 376.989C121.975 377.239 122.698 378.661 122.651 379.276C122.498 381.322 120.882 382.836 119.936 383.758C118.929 384.741 108.847 381.357 103.764 378.448C101.019 376.877 110.632 378.096 112.914 378.04C114.656 377.997 117.951 377.521 118.961 377.1C120.024 376.657 120.519 376.592 120.996 376.803L121.412 376.989Z" fill="#0B4870"/>
<path d="M260.524 389.572C260.524 394.546 224.137 398.577 179.251 398.577C134.365 398.577 97.9785 394.546 97.9785 389.572C97.9785 384.599 134.366 380.568 179.251 380.568C224.137 380.567 260.524 384.599 260.524 389.572Z" fill="#CCCCCC"/>
<path d="M124.68 390.107C125.083 390.574 125.132 392.168 124.828 392.705C123.819 394.491 121.712 395.172 120.463 395.605C119.135 396.065 111.451 388.713 108.089 383.917C106.274 381.327 114.454 386.521 116.542 387.442C118.138 388.145 121.322 389.116 122.415 389.165C123.565 389.216 124.041 389.367 124.382 389.762L124.68 390.107Z" fill="#0B4870"/>
<path d="M263.317 376.84C263.328 376.801 263.339 376.763 263.349 376.724C264.014 374.396 264.505 371.609 264.822 368.245C248.911 368.648 224.83 366.609 221.483 359.006C220.123 361.637 218.951 365.583 218.665 369.605C205.071 370.195 187.871 371.38 176.631 373.185C165.642 375.038 120.504 388.397 121.203 390.315C122.972 395.169 133.544 393.394 152.711 392.227C160.492 391.754 177.99 389.251 186.381 386.915C197.456 386.97 242.857 391.171 247.559 390.24C259.02 387.973 260.218 386.19 262.996 377.892C263.028 377.798 263.049 377.714 263.079 377.621C263.161 377.368 263.24 377.106 263.317 376.84Z" fill="#0B4870"/>
<path d="M245.329 321.303C248.254 321.891 250.399 326.422 251.964 327.751C253.858 329.359 251.803 330.837 249.142 331.306C246.758 331.727 243.523 331.403 242.073 330.255C240.846 329.285 239.31 328.145 237.963 324.34C236.863 321.235 241.51 320.536 245.329 321.303Z" fill="#FFE3CA"/>
<path d="M210.673 319.31C213.598 319.898 215.743 324.429 217.308 325.758C219.202 327.366 217.146 328.844 214.486 329.313C212.103 329.734 212.633 331.1 211.182 329.952C209.955 328.981 208.42 327.841 207.072 324.037C205.972 320.932 206.854 318.543 210.673 319.31Z" fill="#FFE3CA"/>
<path d="M282.371 337.203C282.364 337.051 282.36 336.897 282.344 336.751C282.069 332.986 280.375 328.185 279.056 324.314C277.011 318.312 273.932 308.559 267.78 297.151C264.848 291.713 260.624 289.944 253.489 290.245C250.684 290.363 257.594 303.151 259.114 306.67C260.739 310.434 266.5 316.893 270.742 327.407C271.115 328.335 273.659 333.671 274.075 334.744C268.481 333.728 256.427 328.085 252.377 326.488C251.087 325.98 250.308 325.135 249.305 326.326C247.218 328.806 248.613 331.385 248.613 331.385C248.613 331.385 258.986 337.772 262.323 339.522C269.357 343.21 279.818 345.668 281.338 342.022C281.509 341.612 281.658 341.214 281.786 340.827C282.273 339.861 282.431 338.614 282.371 337.203Z" fill="#CCCCCC"/>
<path d="M236.424 290.882C237.092 293.668 239.502 295.492 242.862 295.351C246.222 295.209 250.994 293.082 253.168 290.177L236.424 290.882Z" fill="#FFE3CA"/>
<path d="M228.86 256.412C222.575 261.782 227.591 279.882 230.302 279.606L236.069 275.559C240.496 274.861 239.183 247.593 228.86 256.412Z" fill="#292929"/>
<path d="M238.749 291.875C240.057 285.437 236.957 277.746 235.747 271.932C234.996 268.325 237.096 264.678 240.844 263.876C244.93 263.001 249.052 265.586 249.893 269.452C250.31 271.375 252.073 278.503 249.166 291.875" fill="#FFE3CA"/>
<path d="M227.589 270.677C227.907 281.156 237.083 289.677 241.863 289.677C246.203 289.677 256.781 281.12 256.462 270.64C256.143 260.161 249.09 251.694 240.708 251.728C232.326 251.762 227.269 260.198 227.589 270.677Z" fill="#FFE3CA"/>
<path d="M256.002 269.868C259.697 272.023 261.019 248.299 251.918 252.359C244.445 255.693 251.575 270.567 256.002 269.868Z" fill="#292929"/>
<path d="M246.026 262.67C233.417 271.37 226.64 263.737 222.51 259.007C222.51 259.007 224.461 258.966 226.448 257.539C226.448 257.539 224.474 256.402 222.176 255.111C222.176 255.111 224.499 254.577 226.882 253.272C226.882 253.272 228.009 253.328 225.089 251.775C225.089 251.775 231.103 248.711 239.05 246.807C244.449 245.514 258.034 244.94 255.758 253.215C255.576 253.876 255.33 254.503 255.042 255.092C253.309 258.632 250.524 259.566 246.026 262.67Z" fill="#292929"/>
<path d="M253.569 269.023C252.771 272.187 253.511 275.117 255.221 275.567C256.931 276.017 258.965 273.817 259.763 270.653C260.56 267.49 259.821 264.561 258.111 264.11C256.4 263.66 254.367 265.86 253.569 269.023Z" fill="#FFE3CA"/>
<path d="M250.393 284.637C250.393 284.637 248.183 288.832 245.307 289.677C242.43 290.521 241.142 291.018 239.061 288.947C239.061 288.947 246.623 289.705 250.393 284.637Z" fill="#FCD2B1"/>
<path d="M384.792 252.621C398.196 252.621 409.061 241.755 409.061 228.352C409.061 214.949 398.196 204.083 384.792 204.083C371.389 204.083 360.523 214.949 360.523 228.352C360.523 241.755 371.389 252.621 384.792 252.621Z" fill="#292929"/>
<path d="M381.947 242.997L368.836 232.166L372.021 228.312L381.142 235.847L397.174 215.027L401.135 218.078L381.947 242.997Z" fill="#CCCCCC"/>
<path d="M179.252 443.168C179.252 444.434 177.2 445.46 174.669 445.46H117.548C115.017 445.46 112.965 444.434 112.965 443.168C112.965 441.903 115.017 440.876 117.548 440.876H174.669C177.2 440.876 179.252 441.902 179.252 443.168Z" fill="#CCCCCC"/>
<path d="M254.546 478.445C254.546 479.711 252.495 480.737 249.963 480.737H192.843C190.312 480.737 188.26 479.711 188.26 478.445C188.26 477.18 190.311 476.154 192.843 476.154H249.964C252.495 476.154 254.546 477.18 254.546 478.445Z" fill="#CCCCCC"/>
<path d="M438.205 485C438.205 486.712 436.153 488.1 433.621 488.1H376.501C373.97 488.1 371.918 486.712 371.918 485C371.918 483.288 373.97 481.9 376.501 481.9H433.622C436.153 481.9 438.205 483.288 438.205 485Z" fill="#CCCCCC"/>
<path d="M515.703 445.459C515.703 447.172 513.651 448.559 511.119 448.559H453.999C451.468 448.559 449.416 447.172 449.416 445.459C449.416 443.747 451.468 442.359 453.999 442.359H511.12C513.651 442.359 515.703 443.747 515.703 445.459Z" fill="#CCCCCC"/>
<path d="M376.45 444.718C376.45 446.84 372.396 448.56 367.395 448.56H254.536C249.535 448.56 245.48 446.84 245.48 444.718C245.48 442.596 249.535 440.876 254.536 440.876H367.395C372.396 440.876 376.45 442.596 376.45 444.718Z" fill="#CCCCCC"/>
</svg>
