<svg width="32" height="32" viewBox="0 0 32 32" fill="none" xmlns="http://www.w3.org/2000/svg">
<rect width="32" height="32" rx="4" fill="#1597E5"/>
<path d="M25.2565 14.962C25.7305 15.582 25.7305 16.419 25.2565 17.038C23.7635 18.987 20.1815 23 15.9995 23C11.8175 23 8.23552 18.987 6.74252 17.038C6.51191 16.7411 6.38672 16.3759 6.38672 16C6.38672 15.6241 6.51191 15.2589 6.74252 14.962C8.23552 13.013 11.8175 9 15.9995 9C20.1815 9 23.7635 13.013 25.2565 14.962V14.962Z" stroke="white" stroke-width="2" stroke-linecap="round" stroke-linejoin="round"/>
<path d="M16 19C17.6569 19 19 17.6569 19 16C19 14.3431 17.6569 13 16 13C14.3431 13 13 14.3431 13 16C13 17.6569 14.3431 19 16 19Z" stroke="white" stroke-width="2" stroke-linecap="round" stroke-linejoin="round"/>
</svg>
