<svg width="40" height="36" viewBox="0 0 40 36" fill="none" xmlns="http://www.w3.org/2000/svg">
<path d="M15.0059 11.75C15.0059 12.7446 14.6108 13.6984 13.9075 14.4017C13.2042 15.1049 12.2504 15.5 11.2559 15.5C10.2613 15.5 9.30747 15.1049 8.60421 14.4017C7.90095 13.6984 7.50586 12.7446 7.50586 11.75C7.50586 10.7554 7.90095 9.80161 8.60421 9.09835C9.30747 8.39509 10.2613 8 11.2559 8C12.2504 8 13.2042 8.39509 13.9075 9.09835C14.6108 9.80161 15.0059 10.7554 15.0059 11.75Z" fill="#AEAEB2"/>
<path d="M5.00586 0.5C3.67978 0.5 2.40801 1.02678 1.47033 1.96447C0.532644 2.90215 0.00585938 4.17392 0.00585938 5.5V30.5C0.00585938 31.8261 0.532644 33.0979 1.47033 34.0355C2.40801 34.9732 3.67978 35.5 5.00586 35.5H35.0059C36.3319 35.5 37.6037 34.9732 38.5414 34.0355C39.4791 33.0979 40.0059 31.8261 40.0059 30.5V5.5C40.0059 4.17392 39.4791 2.90215 38.5414 1.96447C37.6037 1.02678 36.3319 0.5 35.0059 0.5H5.00586ZM35.0059 3C35.6689 3 36.3048 3.26339 36.7736 3.73223C37.2425 4.20107 37.5059 4.83696 37.5059 5.5V21.75L28.0634 16.8825C27.8289 16.7651 27.5635 16.7243 27.3046 16.766C27.0457 16.8078 26.8065 16.9298 26.6209 17.115L17.3459 26.39L10.6959 21.96C10.4558 21.8001 10.1678 21.7283 9.88071 21.7565C9.59365 21.7848 9.32519 21.9114 9.12086 22.115L2.50586 28V5.5C2.50586 4.83696 2.76925 4.20107 3.23809 3.73223C3.70693 3.26339 4.34282 3 5.00586 3H35.0059Z" fill="#AEAEB2"/>
</svg>
