<svg width="16" height="16" viewBox="0 0 16 16" fill="none" xmlns="http://www.w3.org/2000/svg">
<path d="M9.52795 1.52924C9.78828 1.2689 10.2104 1.2689 10.4707 1.52924L13.1374 4.19591C13.3977 4.45626 13.3977 4.87837 13.1374 5.13872L10.4707 7.80538C10.2104 8.06572 9.78828 8.06572 9.52795 7.80538C9.26762 7.54505 9.26762 7.12292 9.52795 6.86258L11.0565 5.33398H3.33268C2.9645 5.33398 2.66602 5.0355 2.66602 4.66732C2.66602 4.29912 2.9645 4.00065 3.33268 4.00065H11.0565L9.52795 2.47206C9.26762 2.2117 9.26762 1.7896 9.52795 1.52924ZM6.47076 8.19592C6.73108 8.45625 6.73108 8.87838 6.47076 9.13872L4.94216 10.6673H12.666C13.0342 10.6673 13.3327 10.9658 13.3327 11.334C13.3327 11.7022 13.0342 12.0007 12.666 12.0007H4.94216L6.47076 13.5293C6.73108 13.7896 6.73108 14.2117 6.47076 14.4721C6.2104 14.7324 5.7883 14.7324 5.52794 14.4721L2.86128 11.8054C2.73626 11.6804 2.66602 11.5108 2.66602 11.334C2.66602 11.1572 2.73626 10.9876 2.86128 10.8626L5.52794 8.19592C5.7883 7.93558 6.2104 7.93558 6.47076 8.19592Z" fill="#EB5757"/>
</svg>
