<svg width="30" height="30" viewBox="0 0 30 30" fill="none" xmlns="http://www.w3.org/2000/svg">
<rect width="30" height="30" rx="2" fill="#2F80ED"/>
<path d="M20.2746 6.83708C20.6407 6.47097 21.2343 6.47097 21.6004 6.83708L24.4129 9.64958C24.779 10.0157 24.779 10.6093 24.4129 10.9754L15.9754 19.4129C15.7996 19.5887 15.5611 19.6875 15.3125 19.6875H12.5C11.9822 19.6875 11.5625 19.2678 11.5625 18.75V15.9375C11.5625 15.6889 11.6613 15.4504 11.8371 15.2746L20.2746 6.83708ZM13.4375 16.3258V17.8125H14.9242L22.4242 10.3125L20.9375 8.82582L13.4375 16.3258ZM7.8125 10.3125C7.8125 9.27697 8.65197 8.4375 9.6875 8.4375H14.375C14.8928 8.4375 15.3125 8.85724 15.3125 9.375C15.3125 9.89276 14.8928 10.3125 14.375 10.3125H9.6875V21.5625H20.9375V16.875C20.9375 16.3572 21.3572 15.9375 21.875 15.9375C22.3928 15.9375 22.8125 16.3572 22.8125 16.875V21.5625C22.8125 22.5981 21.9731 23.4375 20.9375 23.4375H9.6875C8.65197 23.4375 7.8125 22.5981 7.8125 21.5625V10.3125Z" fill="white"/>
</svg>
