<svg width="48" height="48" viewBox="0 0 48 48" fill="none" xmlns="http://www.w3.org/2000/svg">
<rect width="48" height="48" rx="8" fill="#F3F3F3"/>
<path d="M26.8317 11.5101C26.9156 11.538 27.0017 11.474 26.9977 11.3856C26.9052 9.35619 25.2808 8 23.5018 8C21.712 8 20.0986 9.37362 20.006 11.3869C20.0019 11.4753 20.0881 11.5392 20.1719 11.5114C22.2229 10.8289 24.8164 10.84 26.8317 11.5101Z" fill="#FFCC00"/>
<path d="M36.1102 31.5061C34.4527 30.0855 33.502 28.0186 33.502 25.8361V24.9931C33.502 24.9137 33.4292 24.8555 33.3514 24.8711C29.106 25.7213 25.002 22.452 25.002 18.0005C25.002 14.9781 26.6587 13.3598 27.1935 12.9009C27.2645 12.84 27.246 12.7249 27.1591 12.6904C20.6814 10.1203 13.502 14.8954 13.502 22.0005V25.8361C13.502 27.9745 12.5835 30.0586 10.8939 31.5061C10.6152 31.7448 10.3877 32.0467 10.2358 32.378C9.45816 34.0681 10.6998 36.0005 12.557 36.0005H34.4023C35.7501 36.0005 36.8999 34.9738 36.9955 33.6295C37.0558 32.7806 36.6942 32.0063 36.1102 31.5061Z" fill="#FFCC00"/>
<path d="M23.5029 40C25.3586 40 26.9554 38.8711 27.6424 37.2636C27.6958 37.1389 27.6067 37 27.471 37H19.5348C19.3991 37 19.31 37.1389 19.3633 37.2636C20.0503 38.8711 21.6472 40 23.5029 40Z" fill="#FFCC00"/>
<path d="M32.002 24C35.3315 24 38.002 21.3044 38.002 18C38.002 14.6919 35.3101 12 32.002 12C28.6751 12 26.002 14.7018 26.002 18C26.002 21.3081 28.6938 24 32.002 24ZM31.2257 16.4475C30.9782 16.5706 30.6782 16.4706 30.5545 16.2238C30.4313 15.9769 30.5313 15.6762 30.7782 15.5525L31.7782 15.0525C32.1082 14.8875 32.502 15.1261 32.502 15.5V19.9375C32.502 19.972 32.53 20 32.5645 20H32.985C33.2513 20 33.4838 20.2011 33.5009 20.4669C33.5196 20.7582 33.2891 21 33.002 21H31.019C30.7526 21 30.5201 20.7989 30.503 20.5331C30.4843 20.2418 30.7148 20 31.002 20H31.4395C31.474 20 31.502 19.972 31.502 19.9375V16.4101C31.502 16.3636 31.453 16.3333 31.4114 16.3542L31.2257 16.4475Z" fill="#1C1C1C"/>
</svg>
