<svg width="48" height="48" viewBox="0 0 48 48" fill="none" xmlns="http://www.w3.org/2000/svg">
<g clip-path="url(#clip0_1305_2383)">
<path d="M16.8572 37.6319L9.69616 41.538C9.27593 41.7672 8.89827 42.0488 8.54688 42.3558C12.722 45.8761 18.1116 47.9999 24.0002 47.9999C29.8453 47.9999 35.2005 45.9078 39.3638 42.4355C38.9798 42.1113 38.5632 41.8197 38.1013 41.5896L30.4331 37.756C29.4423 37.2606 28.8165 36.2481 28.8165 35.1404V32.1318C29.032 31.8864 29.2783 31.5712 29.5419 31.199C30.587 29.7228 31.3777 28.0989 31.9256 26.3954C32.9091 26.092 33.6337 25.1836 33.6337 24.1041V20.8926C33.6337 20.1862 33.3194 19.5549 32.8313 19.113V14.4705C32.8313 14.4705 33.7849 7.24609 24.0011 7.24609C14.2172 7.24609 15.1709 14.4705 15.1709 14.4705V19.113C14.6818 19.5549 14.3685 20.1862 14.3685 20.8926V24.1041C14.3685 24.9499 14.8131 25.6944 15.4788 26.1246C16.2812 29.6177 18.3823 32.1318 18.3823 32.1318V35.0662C18.3814 36.1348 17.7964 37.1193 16.8572 37.6319Z" fill="#E7ECED"/>
<path d="M24.4102 0.00357388C11.1577 -0.222841 0.229991 10.3372 0.00357625 23.5897C-0.125028 31.104 3.2241 37.8575 8.55663 42.3486C8.90531 42.0443 9.27935 41.7654 9.69505 41.539L16.8561 37.6329C17.7953 37.1203 18.3803 36.1358 18.3803 35.0653V32.131C18.3803 32.131 16.2783 29.6169 15.4768 26.1237C14.812 25.6935 14.3664 24.95 14.3664 24.1032V20.8917C14.3664 20.1853 14.6807 19.5541 15.1689 19.1121V14.4697C15.1689 14.4697 14.2152 7.24523 23.9991 7.24523C33.7829 7.24523 32.8292 14.4697 32.8292 14.4697V19.1121C33.3183 19.5541 33.6317 20.1853 33.6317 20.8917V24.1032C33.6317 25.1827 32.9071 26.0911 31.9236 26.3945C31.3757 28.0981 30.585 29.7219 29.5399 31.1981C29.2763 31.5704 29.03 31.8855 28.8144 32.131V35.1396C28.8144 36.2472 29.4403 37.2606 30.4311 37.7551L38.0993 41.5888C38.5594 41.8188 38.9751 42.1095 39.3582 42.4329C44.5295 38.1201 47.8705 31.6718 47.9945 24.4102C48.2228 11.1577 37.6637 0.229989 24.4102 0.00357388Z" fill="#556080"/>
</g>
<defs>
<clipPath id="clip0_1305_2383">
<rect width="48" height="48" fill="white"/>
</clipPath>
</defs>
</svg>
