<svg width="36" height="36" viewBox="0 0 36 36" fill="none" xmlns="http://www.w3.org/2000/svg">
<circle cx="18" cy="18" r="18" fill="#F2F2F2"/>
<path fill-rule="evenodd" clip-rule="evenodd" d="M21.75 11.7316V11.9208C22.8325 12.0198 23.9106 12.1621 24.9817 12.3475C25.0625 12.3615 25.1399 12.3913 25.2092 12.4352C25.2786 12.479 25.3386 12.5362 25.3859 12.6033C25.4332 12.6703 25.4668 12.7461 25.4848 12.8262C25.5028 12.9062 25.5048 12.9891 25.4908 13.07C25.4768 13.1508 25.447 13.2282 25.4031 13.2975C25.3593 13.3669 25.3021 13.4269 25.235 13.4742C25.1679 13.5215 25.0922 13.5551 25.0121 13.5731C24.9321 13.5911 24.8492 13.5931 24.7683 13.5791L24.5942 13.55L23.7567 24.4416C23.7084 25.0696 23.4248 25.6562 22.9627 26.0842C22.5006 26.5122 21.894 26.7499 21.2642 26.75H14.7367C14.1068 26.7499 13.5002 26.5122 13.0381 26.0842C12.576 25.6562 12.2925 25.0696 12.2442 24.4416L11.4058 13.55L11.2317 13.5791C11.1508 13.5931 11.068 13.5911 10.9879 13.5731C10.9078 13.5551 10.8321 13.5215 10.765 13.4742C10.6295 13.3787 10.5375 13.2333 10.5092 13.07C10.4809 12.9066 10.5186 12.7387 10.6141 12.6033C10.7096 12.4678 10.855 12.3757 11.0183 12.3475C12.0894 12.1619 13.1675 12.0196 14.25 11.9208V11.7316C14.25 10.4283 15.2608 9.31496 16.5967 9.27246C17.5323 9.24251 18.4686 9.24251 19.4042 9.27246C20.74 9.31496 21.75 10.4283 21.75 11.7316ZM16.6367 10.5216C17.5456 10.4926 18.4552 10.4926 19.3642 10.5216C19.9917 10.5416 20.5 11.07 20.5 11.7316V11.8258C18.8349 11.7247 17.1651 11.7247 15.5 11.8258V11.7316C15.5 11.07 16.0075 10.5416 16.6367 10.5216ZM16.3408 15.4758C16.3377 15.3937 16.3184 15.3131 16.284 15.2385C16.2497 15.1638 16.201 15.0967 16.1407 15.0409C16.0804 14.9851 16.0097 14.9418 15.9327 14.9133C15.8556 14.8848 15.7737 14.8718 15.6917 14.875C15.6096 14.8781 15.5289 14.8974 15.4543 14.9318C15.3797 14.9661 15.3126 15.0148 15.2568 15.0751C15.201 15.1354 15.1576 15.2061 15.1292 15.2831C15.1007 15.3601 15.0877 15.442 15.0908 15.5241L15.38 23.0241C15.3864 23.1898 15.4584 23.3461 15.58 23.4587C15.6403 23.5144 15.7109 23.5578 15.7879 23.5862C15.8649 23.6147 15.9467 23.6277 16.0288 23.6245C16.1108 23.6214 16.1914 23.6021 16.2659 23.5678C16.3405 23.5334 16.4076 23.4848 16.4633 23.4245C16.5191 23.3643 16.5624 23.2936 16.5909 23.2166C16.6193 23.1397 16.6323 23.0578 16.6292 22.9758L16.3408 15.4758ZM20.9075 15.5241C20.9136 15.4405 20.9028 15.3564 20.8758 15.277C20.8487 15.1977 20.806 15.1245 20.7501 15.062C20.6942 14.9995 20.6262 14.9488 20.5503 14.9131C20.4745 14.8774 20.3922 14.8573 20.3083 14.8541C20.2245 14.8508 20.1409 14.8645 20.0625 14.8942C19.9841 14.924 19.9124 14.9692 19.8519 15.0272C19.7913 15.0852 19.743 15.1548 19.7099 15.2319C19.6768 15.309 19.6595 15.3919 19.6592 15.4758L19.37 22.9758C19.3636 23.1416 19.4233 23.3031 19.536 23.4248C19.6487 23.5466 19.8051 23.6185 19.9708 23.625C20.1366 23.6314 20.2981 23.5717 20.4199 23.459C20.5416 23.3463 20.6136 23.1899 20.62 23.0241L20.9075 15.5241V15.5241Z" fill="#828282"/>
</svg>
