<svg width="48" height="48" viewBox="0 0 48 48" fill="none" xmlns="http://www.w3.org/2000/svg">
<rect width="48" height="48" fill="#F3F3F3"/>
<g clip-path="url(#clip0_1305_2398)">
<path d="M25.7254 8C26.1958 8 26.6166 8.2928 26.775 8.7312L27.9046 11.8624C28.3094 11.9632 28.6566 12.064 28.951 12.1696C29.2726 12.2848 29.687 12.4592 30.199 12.6976L32.8294 11.3056C33.0441 11.1919 33.2899 11.1508 33.5299 11.1886C33.7699 11.2264 33.9912 11.341 34.1606 11.5152L36.4742 13.9072C36.7814 14.2256 36.8678 14.6912 36.695 15.0976L35.4614 17.9888C35.6662 18.3648 35.8294 18.6864 35.9542 18.9552C36.0886 19.248 36.255 19.6512 36.4534 20.1712L39.3286 21.4032C39.7606 21.5872 40.0278 22.0192 39.999 22.4816L39.7878 25.8016C39.7734 26.0173 39.6959 26.224 39.5651 26.3961C39.4342 26.5681 39.2558 26.698 39.0518 26.7696L36.3286 27.7376C36.2502 28.1136 36.1686 28.4352 36.0822 28.7072C35.9428 29.1273 35.7837 29.5405 35.6054 29.9456L36.9734 32.9696C37.0699 33.1821 37.0959 33.4199 37.0476 33.6482C36.9992 33.8765 36.879 34.0833 36.7046 34.2384L34.103 36.5616C33.9317 36.714 33.7179 36.8103 33.4902 36.8378C33.2626 36.8652 33.032 36.8225 32.8294 36.7152L30.1478 35.2944C29.7282 35.5165 29.2954 35.7126 28.8518 35.8816L27.6806 36.32L26.6406 39.2C26.5635 39.4109 26.4245 39.5936 26.2418 39.7241C26.059 39.8546 25.8411 39.9268 25.6166 39.9312L22.5766 40C22.3461 40.0061 22.1195 39.9405 21.9278 39.8124C21.7361 39.6844 21.5888 39.5 21.5062 39.2848L20.2806 36.0416C19.8624 35.8987 19.4484 35.744 19.039 35.5776C18.7041 35.4327 18.3743 35.2763 18.0502 35.1088L15.0102 36.408C14.8099 36.4935 14.589 36.5188 14.3746 36.4811C14.1601 36.4433 13.9612 36.344 13.8022 36.1952L11.5526 34.0848C11.3851 33.9284 11.271 33.7232 11.2265 33.4984C11.182 33.2736 11.2093 33.0405 11.3046 32.832L12.6118 29.984C12.4379 29.6467 12.2768 29.303 12.1286 28.9536C11.9556 28.526 11.7956 28.0932 11.6486 27.656L8.78459 26.784C8.55179 26.7136 8.34874 26.5684 8.20697 26.3708C8.0652 26.1732 7.99265 25.9343 8.00059 25.6912L8.11259 22.6176C8.12056 22.4171 8.18321 22.2225 8.29375 22.055C8.4043 21.8875 8.55854 21.7534 8.73979 21.6672L11.7446 20.224C11.8838 19.7136 12.0054 19.3168 12.1126 19.0272C12.2635 18.6404 12.4312 18.2603 12.615 17.888L11.3126 15.136C11.2137 14.927 11.1837 14.6921 11.2269 14.4649C11.27 14.2378 11.384 14.0302 11.5526 13.872L13.799 11.7504C13.9565 11.6019 14.1535 11.502 14.3664 11.4629C14.5793 11.4237 14.799 11.4469 14.999 11.5296L18.0358 12.784C18.3718 12.56 18.6758 12.3792 18.951 12.2336C19.279 12.0592 19.7174 11.8768 20.2694 11.68L21.3254 8.7344C21.4035 8.51883 21.5462 8.33261 21.734 8.20117C21.9219 8.06973 22.1457 7.99948 22.375 8H25.7254ZM24.9414 10.2032H23.1606L22.1926 12.9136C22.1357 13.0716 22.0436 13.2147 21.9233 13.3319C21.803 13.4492 21.6576 13.5376 21.4982 13.5904C20.8006 13.8224 20.2966 14.0224 20.0022 14.1776C19.6902 14.3424 19.2918 14.5936 18.8182 14.9296C18.6632 15.0384 18.4832 15.1063 18.295 15.127C18.1067 15.1477 17.9163 15.1205 17.7414 15.048L14.8134 13.84L13.6726 14.9184L14.8614 17.4304C15.0054 17.7344 15.0022 18.0864 14.8518 18.3856C14.5318 19.0272 14.3158 19.5008 14.207 19.792C14.0982 20.0816 13.9526 20.5792 13.775 21.2672C13.7348 21.4231 13.661 21.5684 13.5587 21.6927C13.4564 21.8171 13.3282 21.9176 13.183 21.9872L10.319 23.3616L10.2614 24.9296L12.8534 25.7168C13.1974 25.8208 13.4694 26.0848 13.583 26.424C13.839 27.192 14.0438 27.7584 14.191 28.1136C14.386 28.5644 14.6017 29.0059 14.8374 29.4368C14.999 29.7376 15.0102 30.096 14.8678 30.4064L13.6662 33.0272L14.8038 34.096L17.655 32.8768C17.8086 32.8112 17.9748 32.7806 18.1417 32.7872C18.3086 32.7938 18.4719 32.8376 18.6198 32.9152C19.2038 33.2224 19.639 33.4352 19.9142 33.552C20.1942 33.6688 20.7302 33.864 21.5078 34.1296C21.6622 34.1823 21.803 34.2684 21.9203 34.3818C22.0375 34.4952 22.1283 34.6331 22.1862 34.7856L23.319 37.7792L24.8006 37.7472L25.7558 35.1008C25.8104 34.9498 25.8972 34.8125 26.0102 34.6984C26.1232 34.5843 26.2597 34.4961 26.4102 34.44L28.0694 33.8192C28.4886 33.664 28.9974 33.4192 29.591 33.0832C29.7553 32.9909 29.9401 32.9414 30.1286 32.9391C30.317 32.9369 30.503 32.982 30.6694 33.0704L33.1926 34.4064L34.6118 33.1408L33.3702 30.4C33.3064 30.2593 33.2733 30.1066 33.273 29.9522C33.2728 29.7977 33.3053 29.6449 33.3686 29.504C33.6598 28.8528 33.8566 28.3616 33.9558 28.048C34.0534 27.7408 34.1542 27.2976 34.2518 26.728C34.2854 26.5345 34.3699 26.3535 34.4968 26.2036C34.6236 26.0537 34.7881 25.9403 34.9734 25.8752L37.6102 24.9392L37.7254 23.1152L35.1334 22.0048C34.9954 21.9461 34.8708 21.8599 34.7671 21.7515C34.6634 21.6432 34.5828 21.5149 34.5302 21.3744C34.3453 20.8644 34.1436 20.3606 33.9254 19.864C33.7188 19.4316 33.4946 19.0078 33.2534 18.5936C33.1698 18.4473 33.1213 18.2836 33.1116 18.1154C33.1019 17.9472 33.1312 17.779 33.1974 17.624L34.3574 14.904L33.135 13.64L30.7542 14.9008C30.5988 14.9832 30.4262 15.0281 30.2503 15.0317C30.0744 15.0353 29.9001 14.9976 29.7414 14.9216C29.236 14.6703 28.7192 14.4429 28.1926 14.24C27.7435 14.0892 27.2856 13.9663 26.8214 13.872C26.6372 13.8329 26.466 13.7477 26.3238 13.6243C26.1816 13.5008 26.0731 13.3433 26.0086 13.1664L24.9398 10.2016L24.9414 10.2032ZM24.039 17.0256C27.935 17.0256 31.095 20.1504 31.095 24.0032C31.095 27.856 27.935 30.9792 24.039 30.9792C20.1414 30.9792 16.983 27.856 16.983 24.0032C16.983 20.1504 20.1414 17.0272 24.039 17.0272V17.0256ZM24.039 19.2304C21.3718 19.2304 19.2102 21.3664 19.2102 24.0032C19.2102 26.64 21.3718 28.7776 24.039 28.7776C26.7046 28.7776 28.8662 26.64 28.8662 24.0032C28.8662 21.3664 26.7062 19.2304 24.039 19.2304Z" fill="#333333"/>
</g>
<defs>
<clipPath id="clip0_1305_2398">
<rect width="32" height="32" fill="white" transform="translate(8 8)"/>
</clipPath>
</defs>
</svg>
