<svg width="32" height="32" viewBox="0 0 32 32" fill="none" xmlns="http://www.w3.org/2000/svg">
<circle cx="16" cy="16" r="16" fill="#E5F9FD"/>
<path d="M11 8.4503V23.3114C11 23.5591 11.2026 23.7617 11.4503 23.7617H13.9272C14.1525 23.7617 14.3551 23.5815 14.3775 23.3565C14.4451 22.5234 15.1431 21.9154 15.9763 21.9154C16.8094 21.9154 17.5074 22.5459 17.5751 23.3565C17.5975 23.5817 17.8003 23.7617 18.0254 23.7617H20.9075C21.1552 23.7617 21.3578 23.5591 21.3578 23.3114V8.4503C21.3578 8.2026 21.1552 8 20.9075 8H18.2054C17.9802 8 17.8002 8.15769 17.7551 8.36031C17.62 9.10336 16.9445 9.66628 16.179 9.66628C15.4134 9.66628 14.7379 9.12584 14.6028 8.36031C14.5577 8.15769 14.3776 8 14.1525 8H11.4504C11.2027 8 11.0001 8.20261 11.0001 8.4503H11ZM18.6557 19.2584H13.4769C13.2292 19.2584 13.0266 19.0557 13.0266 18.8081C13.0266 18.5604 13.2292 18.3578 13.4769 18.3578H18.6557C18.9034 18.3578 19.106 18.5604 19.106 18.8081C19.106 19.0558 18.9034 19.2584 18.6557 19.2584ZM14.3775 16.5564C14.3775 16.3087 14.5801 16.1061 14.8278 16.1061H17.5298C17.7775 16.1061 17.9801 16.3087 17.9801 16.5564C17.9801 16.8041 17.7775 17.0067 17.5298 17.0067H14.8278C14.5801 17.0067 14.3775 16.8041 14.3775 16.5564ZM11.9008 8.90067H13.8148C14.1525 9.89145 15.0983 10.567 16.1791 10.567C17.2598 10.567 18.2055 9.89141 18.5434 8.90067H20.4571V12.9537H11.9007L11.9008 8.90067Z" fill="#45CCFE"/>
</svg>
