<svg width="32" height="32" viewBox="0 0 32 32" fill="none" xmlns="http://www.w3.org/2000/svg">
<rect width="32" height="32" rx="4" fill="#F2F2F2"/>
<path d="M11.8327 9.33268C11.8327 8.41221 12.5789 7.66602 13.4993 7.66602H18.4993C19.4198 7.66602 20.166 8.41221 20.166 9.33268V10.9993H21.8241C21.8293 10.9993 21.8344 10.9993 21.8396 10.9993H23.4993C23.9596 10.9993 24.3327 11.3724 24.3327 11.8327C24.3327 12.2929 23.9596 12.666 23.4993 12.666H22.6086L21.8858 22.7848C21.8235 23.6569 21.0978 24.3327 20.2234 24.3327H11.7753C10.9009 24.3327 10.1751 23.6569 10.1128 22.7848L9.39008 12.666H8.49935C8.03912 12.666 7.66602 12.2929 7.66602 11.8327C7.66602 11.3724 8.03912 10.9993 8.49935 10.9993H10.1591C10.1643 10.9993 10.1695 10.9993 10.1746 10.9993H11.8327V9.33268ZM13.4993 10.9993H18.4993V9.33268H13.4993V10.9993ZM11.061 12.666L11.7753 22.666H20.2234L20.9377 12.666H11.061ZM14.3327 14.3327C14.7929 14.3327 15.166 14.7058 15.166 15.166V20.166C15.166 20.6263 14.7929 20.9993 14.3327 20.9993C13.8724 20.9993 13.4993 20.6263 13.4993 20.166V15.166C13.4993 14.7058 13.8724 14.3327 14.3327 14.3327ZM17.666 14.3327C18.1263 14.3327 18.4993 14.7058 18.4993 15.166V20.166C18.4993 20.6263 18.1263 20.9993 17.666 20.9993C17.2058 20.9993 16.8327 20.6263 16.8327 20.166V15.166C16.8327 14.7058 17.2058 14.3327 17.666 14.3327Z" fill="#828282"/>
</svg>
