<svg width="32" height="32" viewBox="0 0 32 32" fill="none" xmlns="http://www.w3.org/2000/svg">
<g clip-path="url(#clip0_1344_2586)">
<path d="M11.2375 25.0873L6.46345 27.6914C6.1833 27.8441 5.93153 28.0319 5.69727 28.2366C8.48066 30.5834 12.0737 31.9993 15.9995 31.9993C19.8962 31.9993 23.4663 30.6046 26.2419 28.2897C25.9859 28.0735 25.7081 27.8791 25.4002 27.7258L20.2881 25.17C19.6275 24.8397 19.2103 24.1647 19.2103 23.4263V21.4206C19.354 21.2569 19.5182 21.0468 19.6939 20.7987C20.3907 19.8145 20.9178 18.732 21.2831 17.5963C21.9388 17.394 22.4218 16.7884 22.4218 16.0687V13.9277C22.4218 13.4568 22.2123 13.036 21.8869 12.7413V9.64638C21.8869 9.64638 22.5226 4.83008 16.0001 4.83008C9.47749 4.83008 10.1133 9.64638 10.1133 9.64638V12.7413C9.78723 13.036 9.57832 13.4568 9.57832 13.9277V16.0687C9.57832 16.6326 9.87477 17.1289 10.3185 17.4157C10.8535 19.7445 12.2542 21.4206 12.2542 21.4206V23.3768C12.2536 24.0892 11.8636 24.7455 11.2375 25.0873Z" fill="#E7ECED"/>
<path d="M16.2735 0.00238259C7.43846 -0.148561 0.153328 6.89144 0.00238417 15.7265C-0.0833517 20.736 2.1494 25.2383 5.70442 28.2324C5.93687 28.0296 6.18623 27.8436 6.46337 27.6926L11.2374 25.0886C11.8635 24.7468 12.2536 24.0905 12.2536 23.3769V21.4206C12.2536 21.4206 10.8522 19.7446 10.3179 17.4158C9.87469 17.129 9.57763 16.6333 9.57763 16.0688V13.9278C9.57763 13.4569 9.78714 13.036 10.1126 12.7414V9.64646C10.1126 9.64646 9.4768 4.83016 15.9994 4.83016C22.5219 4.83016 21.8862 9.64646 21.8862 9.64646V12.7414C22.2122 13.036 22.4211 13.4569 22.4211 13.9278V16.0688C22.4211 16.7885 21.9381 17.3941 21.2824 17.5963C20.9171 18.732 20.39 19.8146 19.6933 20.7988C19.5176 21.0469 19.3533 21.257 19.2096 21.4206V23.4264C19.2096 24.1648 19.6268 24.8404 20.2874 25.1701L25.3995 27.7259C25.7062 27.8792 25.9834 28.073 26.2388 28.2886C29.6863 25.4134 31.9136 21.1145 31.9963 16.2735C32.1485 7.43846 25.1091 0.153326 16.2735 0.00238259Z" fill="#556080"/>
</g>
<defs>
<clipPath id="clip0_1344_2586">
<rect width="32" height="32" fill="white"/>
</clipPath>
</defs>
</svg>
