<svg width="692" height="522" viewBox="0 0 692 522" fill="none" xmlns="http://www.w3.org/2000/svg">
<g clip-path="url(#clip0_1354_877)">
<path opacity="0.24" d="M233.477 8.50946C189.271 26.0459 163.618 71.1053 130.158 104.954C110.97 124.411 88.7229 140.471 68.9947 159.364C49.2664 178.256 31.8169 200.894 25.8204 227.541C14.4152 278.05 46.2083 327.382 54.5313 378.491C57.1817 394.815 57.4576 411.655 62.7464 427.307C66.9319 439.695 74.1276 450.893 82.4506 460.916C116.163 501.798 170.118 525.096 222.971 521.591C257.834 519.275 291.33 506.131 326.289 504.679C378.974 502.482 432.15 526.969 483.251 513.993C506.817 507.992 527.685 494.488 547.737 480.733C587.529 453.426 628.953 419.938 638.199 372.538C644.987 337.729 632.898 301.035 641.329 266.599C646.222 246.614 657.723 228.861 663.792 209.2C676.684 167.514 662.916 120.09 633.546 87.8375C604.175 55.5854 561.073 37.7729 517.635 33.9919C489.152 31.5073 460.489 34.6401 431.898 34.0879C362.124 32.8156 305.877 -20.2138 233.477 8.50946Z" fill="#292929"/>
<path opacity="0.24" d="M173.837 424.007C170.863 424.607 167.697 425.387 165.694 427.608C162.876 430.824 163.511 436.01 166.09 439.431C168.668 442.851 172.686 444.796 176.667 446.32C195.424 453.522 216.028 453.582 236.104 453.606C276.628 453.606 318.686 453.366 355.385 436.142C325.726 424.679 298.107 425.243 267.237 423.058C235.12 420.886 205.966 417.429 173.837 424.007Z" fill="#292929"/>
<path d="M417.483 236.568L398.415 247.023L371.383 313.844L428.613 282.48L417.483 236.568Z" fill="#292929"/>
<path d="M499.694 236.568L518.762 247.023L545.794 313.844L488.564 282.48L499.694 236.568Z" fill="#292929"/>
<path d="M417.483 236.568L398.415 247.023L371.383 313.844L428.613 282.48L417.483 236.568Z" fill="url(#paint0_linear_1354_877)"/>
<path d="M499.694 236.568L518.762 247.023L545.794 313.844L488.564 282.48L499.694 236.568Z" fill="url(#paint1_linear_1354_877)"/>
<path d="M273.497 419.686C273.127 420.984 273.206 422.369 273.719 423.617C274.233 424.865 275.152 425.903 276.327 426.564C277.497 427.087 278.725 427.466 279.985 427.692C283.853 428.641 287.434 430.515 290.419 433.153C290.905 433.474 291.301 433.914 291.57 434.43C291.838 434.947 291.971 435.524 291.954 436.106C291.678 437.438 290.119 438.003 288.8 438.315C286.026 439.069 283.194 439.587 280.333 439.863C274.517 440.259 268.76 438.663 263.147 437.042C261.013 436.43 257.798 435.506 257.307 433.021C257.208 431.309 257.288 429.591 257.547 427.896L257.918 419.254" fill="#606161"/>
<path d="M240.362 429.996C240.107 430.656 240.048 431.375 240.193 432.067C240.337 432.76 240.679 433.395 241.177 433.897C242.186 434.885 243.339 435.714 244.595 436.358C247.912 438.372 250.838 440.971 253.23 444.028C254.334 445.432 255.365 447.269 254.669 448.913C254.299 449.676 253.71 450.311 252.978 450.737C250.584 452.131 247.825 452.767 245.063 452.562C238.095 452.382 227.793 448.025 225.779 440.475C225.143 438.134 225.839 434.929 225.934 432.517L226.186 426.695" fill="#606161"/>
<path d="M279.853 286.177L274.432 421.811C272.34 423.349 269.831 424.216 267.236 424.296C262.235 424.584 261.336 424.944 257.738 421.667L242.027 279.419L279.853 278.627V286.177Z" fill="#606161"/>
<path d="M279.853 286.177L274.432 421.811C272.34 423.349 269.831 424.216 267.236 424.296C262.235 424.584 261.336 424.944 257.738 421.667L242.027 279.419L279.853 278.627V286.177Z" fill="url(#paint2_linear_1354_877)"/>
<path d="M258.482 298.36L242.892 430.273C242.892 430.273 240.637 432.59 234.497 432.674C227.529 432.758 226.893 431.81 225.334 428.281L222.252 276.971L258.051 283.08L258.482 298.36Z" fill="#606161"/>
<path d="M258.482 298.36L242.892 430.273C242.892 430.273 240.637 432.59 234.497 432.674C227.529 432.758 226.893 431.81 225.334 428.281L222.252 276.971L258.051 283.08L258.482 298.36Z" fill="url(#paint3_linear_1354_877)"/>
<path d="M263.339 285.156C258.454 286.81 253.422 287.991 248.312 288.685C241.536 289.381 234.436 286.104 229.123 285.828C222.036 285.468 221.844 285.24 221.844 280.619C221.844 278.29 280.777 272.709 280.777 272.709C280.777 272.709 280.501 276.97 280.513 280.907C280.513 283.86 279.253 283.692 273.893 284.004C268.532 284.316 267.5 282.684 263.339 285.156Z" fill="#F2FBFF"/>
<path d="M240.086 181.017C240.086 181.017 230.204 183.586 223.152 188.723C218.799 191.892 221.809 280.618 221.809 280.618C222.241 280.546 241.177 288.228 259.49 285.071C275.081 282.383 280.706 275.061 280.706 275.061C280.706 275.061 282.109 189.923 279.075 186.431C277.731 184.87 262.896 179.385 262.896 179.385C262.896 179.385 256.42 189.131 240.086 181.017Z" fill="#292929"/>
<path d="M240.086 181.017C240.086 181.017 230.204 183.586 223.152 188.723C218.799 191.892 221.809 280.618 221.809 280.618C222.241 280.546 241.177 288.228 259.49 285.071C275.081 282.383 280.706 275.061 280.706 275.061C280.706 275.061 282.109 189.923 279.075 186.431C277.731 184.87 262.896 179.385 262.896 179.385C262.896 179.385 256.42 189.131 240.086 181.017Z" fill="url(#paint4_linear_1354_877)"/>
<path d="M243.324 161.309L240.086 181.018C240.086 181.018 247.282 191.628 256.48 190.044C265.679 188.459 263.364 184.186 263.364 184.186L262.165 167.538C262.165 167.538 253.902 168.991 243.324 161.309Z" fill="#C8A59C"/>
<path d="M242.184 168.222L243.383 161.309C253.961 168.991 259.453 165.726 259.453 165.726L262.008 174.668C260.571 176.173 258.635 177.103 256.563 177.285C251.43 177.645 246.297 173.624 242.184 168.222Z" fill="#B58B81"/>
<path d="M240.493 178.641L230.898 183.154C230.898 183.154 246.009 199.142 250.615 198.83C250.615 198.83 254.968 190.74 259.01 189.467L240.493 178.641Z" fill="#F2FBFF"/>
<path d="M262.717 181.39C261.924 184.254 260.686 186.977 259.047 189.456C259.946 189.804 265.811 193.897 265.907 196.657C265.907 196.657 271.735 183.454 269.325 181.378C267.309 180.35 265.239 179.433 263.124 178.629L262.717 181.39Z" fill="#F2FBFF"/>
<path d="M227.048 186.383C227.048 186.383 212.213 191.184 210.534 214.89C208.999 236.495 205.137 252.183 208.279 258.581C212.369 266.923 240.972 268.304 240.972 268.304C241.663 264.152 241.488 259.901 240.456 255.82L224.781 249.555C224.781 249.555 227.3 190.08 227.048 186.383Z" fill="#292929"/>
<path d="M235.037 146.953C235.817 157.888 247.03 177.213 257.943 176.433C268.857 175.652 272.035 153.027 271.255 142.092C270.476 131.157 264.348 124.952 253.41 125.732C250.811 125.917 248.275 126.614 245.945 127.781C243.615 128.948 241.538 130.563 239.831 132.533C238.125 134.504 236.824 136.792 236.001 139.266C235.178 141.74 234.851 144.352 235.037 146.953Z" fill="#C8A59C"/>
<path d="M260.76 266.587C260.496 264.499 261.48 262.494 261.767 258.941C262.055 255.389 259.753 254.464 256.383 254.14C255.459 254.032 254.74 253.924 254.128 253.828C250.986 254.584 253.492 258.401 253.66 261.03C253.828 263.659 253.241 267.428 254.152 268.232C254.536 268.58 257.426 268.424 260.772 267.992C260.826 267.525 260.822 267.053 260.76 266.587Z" fill="#B58B81"/>
<path d="M262.835 165.138C262.835 165.138 262.536 164.862 260.245 165.03C257.525 165.169 254.799 164.976 252.126 164.454C250.363 164.01 249.523 164.286 249.727 166.651C249.931 169.015 251.778 171.116 256.407 171.368C261.6 171.644 263.783 169.687 264.191 167.347C264.478 165.654 263.411 165.09 262.835 165.138Z" fill="#C8A59C"/>
<path d="M242.891 256.192C244.837 255.777 246.756 255.24 248.635 254.584C251.106 253.647 251.885 254.199 255.507 254.584C259.129 254.968 261.611 255.892 261.3 259.529C260.988 263.166 259.944 265.206 260.22 267.331C260.496 269.455 259.837 271.28 256.622 271.352C253.408 271.424 242.891 268.183 242.891 268.183" fill="#C8A59C"/>
<path d="M239.389 255.244H244.894C244.894 255.244 247.292 263.19 244.174 268.7L238.094 268.447C238.094 268.447 240.157 260.718 239.389 255.244Z" fill="#F2FBFF"/>
<path d="M242.172 259.098C242.841 259.098 243.383 258.523 243.383 257.814C243.383 257.104 242.841 256.529 242.172 256.529C241.503 256.529 240.961 257.104 240.961 257.814C240.961 258.523 241.503 259.098 242.172 259.098Z" fill="#D2E8EC"/>
<path d="M263.627 152.115C263.447 151.42 263.406 150.696 263.507 149.985C263.608 149.275 263.848 148.591 264.215 147.974C264.574 147.353 265.055 146.812 265.627 146.381C266.2 145.95 266.853 145.638 267.549 145.465C268.253 145.248 268.995 145.175 269.728 145.253C270.462 145.33 271.172 145.556 271.816 145.915C272.46 146.275 273.024 146.762 273.475 147.346C273.926 147.93 274.254 148.6 274.439 149.314C274.624 150.029 274.662 150.773 274.551 151.503C274.441 152.233 274.183 152.933 273.795 153.56C273.407 154.188 272.895 154.73 272.292 155.154C271.688 155.578 271.005 155.875 270.283 156.028H270.091C268.717 156.336 267.278 156.101 266.073 155.372C264.869 154.643 263.992 153.476 263.627 152.115ZM267.873 146.737C266.809 147.014 265.899 147.701 265.342 148.649C264.784 149.596 264.625 150.726 264.898 151.791C265.101 152.58 265.532 153.293 266.137 153.839C266.742 154.385 267.495 154.741 268.301 154.862C269.106 154.984 269.93 154.865 270.669 154.52C271.407 154.176 272.028 153.622 272.454 152.926C272.88 152.231 273.092 151.426 273.064 150.611C273.035 149.796 272.768 149.007 272.295 148.343C271.821 147.679 271.163 147.17 270.403 146.878C269.642 146.586 268.812 146.524 268.016 146.701L267.873 146.737Z" fill="#292F67"/>
<path d="M252.486 156.111C251.784 155.698 251.17 155.151 250.68 154.5C250.19 153.849 249.834 153.107 249.632 152.318C249.328 151.132 249.381 149.883 249.786 148.728C250.191 147.573 250.928 146.564 251.906 145.828C252.883 145.092 254.056 144.663 255.277 144.594C256.498 144.525 257.712 144.82 258.766 145.441C259.82 146.062 260.666 146.981 261.198 148.083C261.73 149.186 261.924 150.421 261.755 151.633C261.586 152.845 261.062 153.98 260.249 154.895C259.436 155.809 258.371 156.462 257.187 156.771H256.959C255.439 157.132 253.838 156.896 252.486 156.111ZM254.405 146.04C253.778 146.199 253.19 146.481 252.673 146.87C252.157 147.259 251.723 147.747 251.397 148.306C251.071 148.865 250.86 149.483 250.775 150.124C250.69 150.765 250.734 151.417 250.903 152.042C251.144 152.969 251.652 153.805 252.364 154.445C253.075 155.086 253.96 155.503 254.907 155.644C255.853 155.786 256.821 155.645 257.689 155.241C258.556 154.836 259.286 154.185 259.787 153.369C260.288 152.552 260.538 151.606 260.506 150.649C260.473 149.691 260.161 148.764 259.606 147.983C259.052 147.202 258.28 146.602 257.388 146.256C256.495 145.911 255.52 145.835 254.585 146.04H254.405Z" fill="#292F67"/>
<path d="M263.483 150.818L264.742 150.446C264.661 150.192 264.525 149.96 264.342 149.767C264.159 149.574 263.935 149.424 263.686 149.33C263.131 149.177 262.549 149.149 261.981 149.246C261.413 149.344 260.873 149.565 260.4 149.894L261.024 151.094C262.307 150.398 262.931 150.47 263.183 150.578C263.31 150.616 263.417 150.702 263.483 150.818Z" fill="#292F67"/>
<path d="M250.147 150.47L250.099 149.162L242.615 149.378L242.675 150.686L250.147 150.47Z" fill="#292F67"/>
<path d="M279.073 186.432C279.073 186.432 287.36 209.549 292.517 228.286C297.674 247.023 312.905 228.61 312.905 228.61C312.905 228.61 321.3 228.286 321.612 233.412C321.924 238.537 316.815 255.017 302.256 255.377C287.696 255.737 272.273 236.64 272.273 236.64L279.073 186.432Z" fill="#292929"/>
<path d="M301.368 266.756L271.758 266.324C270.991 266.367 270.225 266.23 269.52 265.922C268.816 265.615 268.194 265.146 267.704 264.554C267.214 263.962 266.87 263.263 266.699 262.513C266.528 261.764 266.536 260.984 266.721 260.238L278.03 207.845C278.472 206.158 279.458 204.665 280.835 203.597C282.212 202.529 283.903 201.946 285.646 201.939L315.256 202.372C316.024 202.326 316.792 202.461 317.497 202.768C318.202 203.074 318.826 203.543 319.316 204.136C319.807 204.729 320.151 205.429 320.321 206.18C320.491 206.93 320.481 207.711 320.293 208.457L308.996 260.85C308.552 262.538 307.564 264.032 306.184 265.1C304.805 266.168 303.112 266.75 301.368 266.756Z" fill="#292929"/>
<path d="M301.368 266.756L271.758 266.324C270.991 266.367 270.225 266.23 269.52 265.922C268.816 265.615 268.194 265.146 267.704 264.554C267.214 263.962 266.87 263.263 266.699 262.513C266.528 261.764 266.536 260.984 266.721 260.238L278.03 207.845C278.472 206.158 279.458 204.665 280.835 203.597C282.212 202.529 283.903 201.946 285.646 201.939L315.256 202.372C316.024 202.326 316.792 202.461 317.497 202.768C318.202 203.074 318.826 203.543 319.316 204.136C319.807 204.729 320.151 205.429 320.321 206.18C320.491 206.93 320.481 207.711 320.293 208.457L308.996 260.85C308.552 262.538 307.564 264.032 306.184 265.1C304.805 266.168 303.112 266.75 301.368 266.756Z" fill="url(#paint5_linear_1354_877)"/>
<path d="M301.573 267.067L273.246 266.647C272.514 266.684 271.782 266.548 271.111 266.251C270.44 265.955 269.848 265.505 269.382 264.938C268.916 264.371 268.589 263.703 268.427 262.986C268.265 262.27 268.272 261.526 268.449 260.814L279.243 210.677C279.67 209.062 280.617 207.633 281.937 206.611C283.257 205.589 284.877 205.031 286.546 205.023L314.885 205.444C315.619 205.404 316.351 205.538 317.024 205.834C317.696 206.13 318.289 206.58 318.756 207.148C319.223 207.715 319.55 208.385 319.711 209.102C319.872 209.819 319.862 210.564 319.683 211.277L308.889 261.414C308.461 263.031 307.513 264.461 306.19 265.483C304.867 266.505 303.244 267.062 301.573 267.067Z" fill="#292929"/>
<path d="M320.654 231.023C320.631 229.862 320.383 228.716 319.922 227.65C319.606 226.567 318.97 225.605 318.099 224.89C317.135 224.346 316.039 224.08 314.933 224.121C313.818 224.121 312.69 224.121 311.575 224.121C310.345 224.101 309.123 224.321 307.977 224.77C306.339 225.662 305.065 227.102 304.379 228.839C302.844 232.115 302.52 236.28 304.715 239.149C305.684 240.288 306.825 241.268 308.097 242.054C309.476 243.002 311.095 243.998 312.714 243.554C313.485 243.283 314.189 242.849 314.777 242.282L317.176 240.289C317.994 239.68 318.686 238.918 319.214 238.045C319.654 236.917 319.866 235.714 319.838 234.504C320.168 233.358 320.44 232.196 320.654 231.023Z" fill="#C8A59C"/>
<path d="M269.791 127.917C268.252 124.264 266.001 120.955 263.171 118.182L262.943 120.379C258.448 118.324 253.596 117.166 248.659 116.97L249.091 118.506C247.295 118.057 245.572 117.358 243.97 116.43L242.423 119.19C241.372 118.356 240.22 117.658 238.993 117.114L236.99 124.316C236.424 124.013 235.9 123.637 235.431 123.199C234.903 122.839 234.052 122.731 233.716 123.271C233.586 123.531 233.532 123.822 233.56 124.112V127.208L230.61 126.152C230.484 126.093 230.347 126.063 230.208 126.063C230.069 126.063 229.932 126.093 229.806 126.152C229.709 126.234 229.628 126.334 229.571 126.448C229.513 126.561 229.479 126.685 229.471 126.812C227.324 137.543 231.869 151.503 238.933 159.845C239.205 158.559 239.071 157.221 238.549 156.016C237.962 154.479 236.151 153.615 236.463 151.995C236.545 151.175 236.928 150.416 237.537 149.862C238.146 149.308 238.938 148.999 239.761 148.994C242.051 149.258 241.2 150.098 242.831 151.731C243.406 148.55 242.027 143.329 243.023 140.268C243.352 139.462 243.866 138.745 244.522 138.174C245.178 137.602 245.958 137.192 246.8 136.977C247.643 136.761 248.524 136.745 249.374 136.931C250.223 137.117 251.018 137.499 251.693 138.047C251.621 136.007 254.02 134.698 256.059 134.77C258.098 134.842 260.412 135.623 262.571 135.887C264.406 136.103 266.289 137.387 268.052 137.363C272.585 137.291 270.762 130.473 269.791 127.917Z" fill="#606161"/>
<path opacity="0.24" d="M457.587 412.7C475.821 412.7 490.603 410.9 490.603 408.679C490.603 406.458 475.821 404.658 457.587 404.658C439.352 404.658 424.57 406.458 424.57 408.679C424.57 410.9 439.352 412.7 457.587 412.7Z" fill="#292929"/>
<path opacity="0.24" d="M455.585 438.928C485.159 438.928 509.133 436.01 509.133 432.41C509.133 428.811 485.159 425.893 455.585 425.893C426.011 425.893 402.037 428.811 402.037 432.41C402.037 436.01 426.011 438.928 455.585 438.928Z" fill="#292929"/>
<path d="M456.579 392.775C502.904 392.775 540.457 388.202 540.457 382.56C540.457 376.919 502.904 372.346 456.579 372.346C410.255 372.346 372.701 376.919 372.701 382.56C372.701 388.202 410.255 392.775 456.579 392.775Z" stroke="white" stroke-width="4.36952" stroke-miterlimit="10"/>
<path d="M458.451 66.916C458.451 66.916 368.325 119.885 421.274 285.083H494.742C494.742 285.083 549.285 153.626 458.451 66.916Z" fill="#292929"/>
<path d="M458.451 66.916C458.451 66.916 368.325 119.885 421.274 285.083H494.742C494.742 285.083 549.285 153.626 458.451 66.916Z" fill="url(#paint6_linear_1354_877)"/>
<path d="M456.915 199.082C470.54 199.082 481.585 188.027 481.585 174.391C481.585 160.755 470.54 149.701 456.915 149.701C443.291 149.701 432.246 160.755 432.246 174.391C432.246 188.027 443.291 199.082 456.915 199.082Z" fill="#292929"/>
<path d="M427.437 343.12L436.504 326.591C438.107 346.88 443.085 366.759 451.231 385.406C465.874 370.823 469.544 348.809 472.374 328.332C476.532 338.382 480.246 348.597 483.516 358.976C490.161 345.783 492.33 330.782 489.692 316.245L495.329 325.847C499.181 311.918 497.519 297.038 490.687 284.305C479.046 285.169 467.381 285.741 455.692 286.021C450.096 286.165 444.475 286.237 438.83 286.237C435.125 286.237 428.301 284.785 424.919 286.669C418.418 290.27 420.793 305.79 421.201 312.164C421.538 317.434 422.231 322.675 423.276 327.852C423.767 330.288 428.361 341.439 427.437 343.12Z" fill="#292929"/>
<path d="M427.437 343.12L436.504 326.591C438.107 346.88 443.085 366.759 451.231 385.406C465.874 370.823 469.544 348.809 472.374 328.332C476.532 338.382 480.246 348.597 483.516 358.976C490.161 345.783 492.33 330.782 489.692 316.245L495.329 325.847C499.181 311.918 497.519 297.038 490.687 284.305C479.046 285.169 467.381 285.741 455.692 286.021C450.096 286.165 444.475 286.237 438.83 286.237C435.125 286.237 428.301 284.785 424.919 286.669C418.418 290.27 420.793 305.79 421.201 312.164C421.538 317.434 422.231 322.675 423.276 327.852C423.767 330.288 428.361 341.439 427.437 343.12Z" fill="url(#paint7_linear_1354_877)"/>
<path d="M439.911 322.366L445.427 312.284C446.413 324.656 449.453 336.777 454.422 348.149C463.345 339.254 465.587 325.823 467.314 313.34C469.857 319.477 472.124 325.711 474.114 332.041C478.166 323.991 479.488 314.839 477.88 305.97L481.31 311.852C483.679 303.337 482.665 294.236 478.48 286.453C471.38 286.981 464.268 287.333 457.144 287.509C453.715 287.589 450.285 287.629 446.855 287.629C444.6 287.629 440.438 286.741 438.376 287.894C434.406 290.114 435.845 299.56 436.097 303.497C436.309 306.723 436.733 309.931 437.368 313.1C437.668 314.54 440.462 321.346 439.911 322.366Z" fill="url(#paint8_linear_1354_877)"/>
<path d="M440.029 83.7805C440.029 83.7805 458.714 90.0821 473.909 83.7805L458.822 67.3604C458.462 66.9688 458.023 66.6594 457.533 66.4529C457.043 66.2464 456.515 66.1478 455.983 66.1638C455.452 66.1797 454.931 66.3098 454.454 66.5453C453.977 66.7807 453.557 67.116 453.221 67.5284L440.029 83.7805Z" fill="#292929"/>
<path d="M440.029 83.7805C440.029 83.7805 458.714 90.0821 473.909 83.7805L458.642 67.1683C458.305 66.8014 457.892 66.5113 457.433 66.3177C456.974 66.1242 456.478 66.0317 455.98 66.0465C455.482 66.0613 454.993 66.183 454.546 66.4035C454.099 66.624 453.704 66.938 453.389 67.3244L440.029 83.7805Z" fill="url(#paint9_linear_1354_877)"/>
<path d="M488.878 345.267C501.446 346.468 509.457 348.424 509.457 350.561C509.457 354.354 484.272 357.426 453.091 357.426C421.91 357.426 396.725 354.354 396.725 350.561C396.725 347.428 414.042 344.775 437.68 343.959" stroke="white" stroke-width="2.93412" stroke-miterlimit="10"/>
</g>
<defs>
<linearGradient id="paint0_linear_1354_877" x1="408.057" y1="218.852" x2="381.808" y2="476.877" gradientUnits="userSpaceOnUse">
<stop stop-color="#010101" stop-opacity="0"/>
<stop offset="0.95" stop-color="#010101"/>
</linearGradient>
<linearGradient id="paint1_linear_1354_877" x1="24380.3" y1="15085.1" x2="22120.4" y2="31558.5" gradientUnits="userSpaceOnUse">
<stop stop-color="#010101" stop-opacity="0"/>
<stop offset="0.95" stop-color="#010101"/>
</linearGradient>
<linearGradient id="paint2_linear_1354_877" x1="9502.44" y1="49783.6" x2="277.267" y2="47288.4" gradientUnits="userSpaceOnUse">
<stop stop-color="#010101" stop-opacity="0"/>
<stop offset="0.95" stop-color="#010101"/>
</linearGradient>
<linearGradient id="paint3_linear_1354_877" x1="8453.79" y1="51322.9" x2="3325.97" y2="50915" gradientUnits="userSpaceOnUse">
<stop stop-color="#010101" stop-opacity="0"/>
<stop offset="0.95" stop-color="#010101"/>
</linearGradient>
<linearGradient id="paint4_linear_1354_877" x1="12514.1" y1="21470.1" x2="9716.71" y2="41829.4" gradientUnits="userSpaceOnUse">
<stop stop-color="#010101" stop-opacity="0"/>
<stop offset="0.95" stop-color="#010101"/>
</linearGradient>
<linearGradient id="paint5_linear_1354_877" x1="13009.5" y1="11148.8" x2="13456.9" y2="21536.1" gradientUnits="userSpaceOnUse">
<stop stop-color="#010101" stop-opacity="0"/>
<stop offset="0.95" stop-color="#010101"/>
</linearGradient>
<linearGradient id="paint6_linear_1354_877" x1="392.335" y1="180.369" x2="493.471" y2="175.132" gradientUnits="userSpaceOnUse">
<stop stop-color="white" stop-opacity="0"/>
<stop offset="0.95" stop-color="white"/>
</linearGradient>
<linearGradient id="paint7_linear_1354_877" x1="29228" y1="33381.9" x2="29925.2" y2="15636" gradientUnits="userSpaceOnUse">
<stop stop-color="#010101" stop-opacity="0"/>
<stop offset="0.95" stop-color="#010101"/>
</linearGradient>
<linearGradient id="paint8_linear_1354_877" x1="18047.7" y1="18884" x2="18306.3" y2="12278.8" gradientUnits="userSpaceOnUse">
<stop stop-color="#010101" stop-opacity="0"/>
<stop offset="0.95" stop-color="#010101"/>
</linearGradient>
<linearGradient id="paint9_linear_1354_877" x1="13378.7" y1="1801.98" x2="12082.6" y2="1430.08" gradientUnits="userSpaceOnUse">
<stop stop-color="#010101" stop-opacity="0"/>
<stop offset="0.95" stop-color="#010101"/>
</linearGradient>
<clipPath id="clip0_1354_877">
<rect width="692" height="522" fill="white"/>
</clipPath>
</defs>
</svg>
