<svg width="676" height="676" viewBox="0 0 676 676" fill="none" xmlns="http://www.w3.org/2000/svg">
<path d="M140.646 244.112C183.408 244.112 218.073 209.447 218.073 166.685C218.073 123.923 183.408 89.2578 140.646 89.2578C97.884 89.2578 63.2188 123.923 63.2188 166.685C63.2188 209.447 97.884 244.112 140.646 244.112Z" stroke="#D3D3D3" stroke-miterlimit="10" stroke-dasharray="12.14 12.14"/>
<path d="M185.337 150.536C170.377 157.045 155.543 165.057 145.09 177.576C134.637 190.094 129.379 208.058 135.701 223.143C144.088 243.235 170.628 254.94 170.753 276.722C170.815 292.308 156.419 304.2 141.898 309.896C127.376 315.592 111.29 317.595 98.0828 325.92C78.1158 338.439 68.7895 362.662 64.9714 385.884C61.028 409.982 62.5928 437.46 79.6806 454.986C100.9 476.706 135.951 474.264 165.996 469.633C206.055 463.436 245.927 456.175 285.861 448.915C373.302 432.953 460.744 417.055 548.124 401.094C557.512 399.404 567.277 397.526 574.851 391.767C589.998 380.376 591.25 356.903 582.487 340.191C573.724 323.416 557.45 312.025 541.301 302.197C525.152 292.37 508.064 283.044 495.984 268.46C483.904 253.876 477.895 232.344 487.033 215.82C494.795 201.799 511.444 194.288 518.705 180.017C528.282 161.176 517.265 137.141 499.865 125.123C482.401 112.98 264.266 115.984 185.337 150.536Z" fill="#F7F7F7"/>
<path d="M533.727 528.719H305.201C301.508 528.719 298.441 525.715 298.441 521.959V150.848C298.441 147.155 301.446 144.088 305.201 144.088H533.727C537.42 144.088 540.487 147.092 540.487 150.848V521.959C540.487 525.715 537.482 528.719 533.727 528.719Z" fill="#CCCCCC"/>
<path d="M546.746 541.739H318.283C314.59 541.739 311.523 538.735 311.523 534.979V163.867C311.523 160.174 314.528 157.107 318.283 157.107H546.809C550.502 157.107 553.569 160.112 553.569 163.867V534.979C553.506 538.735 550.502 541.739 546.746 541.739Z" stroke="#CCCCCC" stroke-miterlimit="10"/>
<path d="M517.891 170.752H321.037V502.117H517.891V170.752Z" fill="#292929"/>
<path d="M512.008 175.197H326.984V231.28H512.008V175.197Z" fill="#CCCCCC"/>
<path d="M494.356 201.299H340.691C334.87 201.299 330.176 196.542 330.176 190.783V190.721C330.176 184.9 334.933 180.205 340.691 180.205H494.356C500.177 180.205 504.872 184.962 504.872 190.721V190.783C504.872 196.542 500.177 201.299 494.356 201.299Z" fill="#F7F7F7"/>
<path d="M342.757 185.963H401.344C403.973 185.963 406.101 188.091 406.101 190.72C406.101 193.349 403.973 195.477 401.344 195.477H342.757C340.128 195.477 338 193.349 338 190.72C338 188.091 340.128 185.963 342.757 185.963Z" fill="#292929"/>
<path d="M344.071 193.788C345.765 193.788 347.138 192.415 347.138 190.721C347.138 189.027 345.765 187.654 344.071 187.654C342.377 187.654 341.004 189.027 341.004 190.721C341.004 192.415 342.377 193.788 344.071 193.788Z" fill="#B6E7FF"/>
<path d="M351.27 193.788C352.964 193.788 354.337 192.415 354.337 190.721C354.337 189.027 352.964 187.654 351.27 187.654C349.576 187.654 348.203 189.027 348.203 190.721C348.203 192.415 349.576 193.788 351.27 193.788Z" fill="#B6E7FF"/>
<path d="M358.405 193.788C360.099 193.788 361.472 192.415 361.472 190.721C361.472 189.027 360.099 187.654 358.405 187.654C356.711 187.654 355.338 189.027 355.338 190.721C355.338 192.415 356.711 193.788 358.405 193.788Z" fill="#B6E7FF"/>
<path d="M365.604 193.788C367.298 193.788 368.671 192.415 368.671 190.721C368.671 189.027 367.298 187.654 365.604 187.654C363.91 187.654 362.537 189.027 362.537 190.721C362.537 192.415 363.91 193.788 365.604 193.788Z" fill="#B6E7FF"/>
<path d="M372.801 193.788C374.495 193.788 375.868 192.415 375.868 190.721C375.868 189.027 374.495 187.654 372.801 187.654C371.108 187.654 369.734 189.027 369.734 190.721C369.734 192.415 371.108 193.788 372.801 193.788Z" fill="#B6E7FF"/>
<path d="M379.999 193.788C381.693 193.788 383.066 192.415 383.066 190.721C383.066 189.027 381.693 187.654 379.999 187.654C378.305 187.654 376.932 189.027 376.932 190.721C376.932 192.415 378.305 193.788 379.999 193.788Z" fill="#B6E7FF"/>
<path d="M494.356 226.461H340.691C334.87 226.461 330.176 221.704 330.176 215.945V215.883C330.176 210.062 334.933 205.367 340.691 205.367H494.356C500.177 205.367 504.872 210.124 504.872 215.883V215.945C504.872 221.766 500.177 226.461 494.356 226.461Z" fill="#F7F7F7"/>
<path d="M342.757 211.125H401.344C403.973 211.125 406.101 213.253 406.101 215.882C406.101 218.511 403.973 220.639 401.344 220.639H342.757C340.128 220.639 338 218.511 338 215.882C338 213.253 340.128 211.125 342.757 211.125Z" fill="#292929"/>
<path d="M344.071 218.95C345.765 218.95 347.138 217.577 347.138 215.883C347.138 214.19 345.765 212.816 344.071 212.816C342.377 212.816 341.004 214.19 341.004 215.883C341.004 217.577 342.377 218.95 344.071 218.95Z" fill="#B6E7FF"/>
<path d="M351.27 218.95C352.964 218.95 354.337 217.577 354.337 215.883C354.337 214.19 352.964 212.816 351.27 212.816C349.576 212.816 348.203 214.19 348.203 215.883C348.203 217.577 349.576 218.95 351.27 218.95Z" fill="#B6E7FF"/>
<path d="M358.405 218.95C360.099 218.95 361.472 217.577 361.472 215.883C361.472 214.19 360.099 212.816 358.405 212.816C356.711 212.816 355.338 214.19 355.338 215.883C355.338 217.577 356.711 218.95 358.405 218.95Z" fill="#B6E7FF"/>
<path d="M365.604 218.95C367.298 218.95 368.671 217.577 368.671 215.883C368.671 214.19 367.298 212.816 365.604 212.816C363.91 212.816 362.537 214.19 362.537 215.883C362.537 217.577 363.91 218.95 365.604 218.95Z" fill="#B6E7FF"/>
<path d="M372.801 218.95C374.495 218.95 375.868 217.577 375.868 215.883C375.868 214.19 374.495 212.816 372.801 212.816C371.108 212.816 369.734 214.19 369.734 215.883C369.734 217.577 371.108 218.95 372.801 218.95Z" fill="#B6E7FF"/>
<path d="M379.999 218.95C381.693 218.95 383.066 217.577 383.066 215.883C383.066 214.19 381.693 212.816 379.999 212.816C378.305 212.816 376.932 214.19 376.932 215.883C376.932 217.577 378.305 218.95 379.999 218.95Z" fill="#B6E7FF"/>
<path d="M512.008 239.541H326.984V295.624H512.008V239.541Z" fill="#CCCCCC"/>
<path d="M494.356 265.58H340.691C334.87 265.58 330.176 260.823 330.176 255.064V255.002C330.176 249.181 334.933 244.486 340.691 244.486H494.356C500.177 244.486 504.872 249.243 504.872 255.002V255.064C504.872 260.886 500.177 265.58 494.356 265.58Z" fill="#F7F7F7"/>
<path d="M342.757 250.244H401.344C403.973 250.244 406.101 252.372 406.101 255.001C406.101 257.63 403.973 259.758 401.344 259.758H342.757C340.128 259.758 338 257.63 338 255.001C338 252.372 340.128 250.244 342.757 250.244Z" fill="#292929"/>
<path d="M344.071 258.07C345.765 258.07 347.138 256.696 347.138 255.003C347.138 253.309 345.765 251.936 344.071 251.936C342.377 251.936 341.004 253.309 341.004 255.003C341.004 256.696 342.377 258.07 344.071 258.07Z" fill="#B6E7FF"/>
<path d="M351.27 258.07C352.964 258.07 354.337 256.696 354.337 255.003C354.337 253.309 352.964 251.936 351.27 251.936C349.576 251.936 348.203 253.309 348.203 255.003C348.203 256.696 349.576 258.07 351.27 258.07Z" fill="#B6E7FF"/>
<path d="M358.405 258.07C360.099 258.07 361.472 256.696 361.472 255.003C361.472 253.309 360.099 251.936 358.405 251.936C356.711 251.936 355.338 253.309 355.338 255.003C355.338 256.696 356.711 258.07 358.405 258.07Z" fill="#B6E7FF"/>
<path d="M365.604 258.07C367.298 258.07 368.671 256.696 368.671 255.003C368.671 253.309 367.298 251.936 365.604 251.936C363.91 251.936 362.537 253.309 362.537 255.003C362.537 256.696 363.91 258.07 365.604 258.07Z" fill="#B6E7FF"/>
<path d="M372.801 258.07C374.495 258.07 375.868 256.696 375.868 255.003C375.868 253.309 374.495 251.936 372.801 251.936C371.108 251.936 369.734 253.309 369.734 255.003C369.734 256.696 371.108 258.07 372.801 258.07Z" fill="#B6E7FF"/>
<path d="M379.999 258.07C381.693 258.07 383.066 256.696 383.066 255.003C383.066 253.309 381.693 251.936 379.999 251.936C378.305 251.936 376.932 253.309 376.932 255.003C376.932 256.696 378.305 258.07 379.999 258.07Z" fill="#B6E7FF"/>
<path d="M494.356 290.805H340.691C334.87 290.805 330.176 286.048 330.176 280.289V280.227C330.176 274.405 334.933 269.711 340.691 269.711H494.356C500.177 269.711 504.872 274.468 504.872 280.227V280.289C504.872 286.048 500.177 290.805 494.356 290.805Z" fill="#F7F7F7"/>
<path d="M342.757 275.406H401.344C403.973 275.406 406.101 277.534 406.101 280.163C406.101 282.792 403.973 284.92 401.344 284.92H342.757C340.128 284.92 338 282.792 338 280.163C338 277.597 340.128 275.406 342.757 275.406Z" fill="#292929"/>
<path d="M344.071 283.294C345.765 283.294 347.138 281.921 347.138 280.227C347.138 278.533 345.765 277.16 344.071 277.16C342.377 277.16 341.004 278.533 341.004 280.227C341.004 281.921 342.377 283.294 344.071 283.294Z" fill="#B6E7FF"/>
<path d="M351.27 283.294C352.964 283.294 354.337 281.921 354.337 280.227C354.337 278.533 352.964 277.16 351.27 277.16C349.576 277.16 348.203 278.533 348.203 280.227C348.203 281.921 349.576 283.294 351.27 283.294Z" fill="#B6E7FF"/>
<path d="M358.405 283.294C360.099 283.294 361.472 281.921 361.472 280.227C361.472 278.533 360.099 277.16 358.405 277.16C356.711 277.16 355.338 278.533 355.338 280.227C355.338 281.921 356.711 283.294 358.405 283.294Z" fill="#B6E7FF"/>
<path d="M365.604 283.294C367.298 283.294 368.671 281.921 368.671 280.227C368.671 278.533 367.298 277.16 365.604 277.16C363.91 277.16 362.537 278.533 362.537 280.227C362.537 281.921 363.91 283.294 365.604 283.294Z" fill="#B6E7FF"/>
<path d="M372.801 283.294C374.495 283.294 375.868 281.921 375.868 280.227C375.868 278.533 374.495 277.16 372.801 277.16C371.108 277.16 369.734 278.533 369.734 280.227C369.734 281.921 371.108 283.294 372.801 283.294Z" fill="#B6E7FF"/>
<path d="M379.999 283.294C381.693 283.294 383.066 281.921 383.066 280.227C383.066 278.533 381.693 277.16 379.999 277.16C378.305 277.16 376.932 278.533 376.932 280.227C376.932 281.921 378.305 283.294 379.999 283.294Z" fill="#B6E7FF"/>
<path d="M512.008 303.824H326.984V359.907H512.008V303.824Z" fill="#CCCCCC"/>
<path d="M494.356 329.926H340.691C334.87 329.926 330.176 325.169 330.176 319.41V319.348C330.176 313.526 334.933 308.832 340.691 308.832H494.356C500.177 308.832 504.872 313.589 504.872 319.348V319.41C504.872 325.169 500.177 329.926 494.356 329.926Z" fill="#F7F7F7"/>
<path d="M342.757 314.527H401.344C403.973 314.527 406.101 316.655 406.101 319.284C406.101 321.913 403.973 324.041 401.344 324.041H342.757C340.128 324.041 338 321.913 338 319.284C338 316.718 340.128 314.527 342.757 314.527Z" fill="#292929"/>
<path d="M344.071 322.415C345.765 322.415 347.138 321.042 347.138 319.348C347.138 317.654 345.765 316.281 344.071 316.281C342.377 316.281 341.004 317.654 341.004 319.348C341.004 321.042 342.377 322.415 344.071 322.415Z" fill="#B6E7FF"/>
<path d="M351.27 322.415C352.964 322.415 354.337 321.042 354.337 319.348C354.337 317.654 352.964 316.281 351.27 316.281C349.576 316.281 348.203 317.654 348.203 319.348C348.203 321.042 349.576 322.415 351.27 322.415Z" fill="#B6E7FF"/>
<path d="M358.405 322.415C360.099 322.415 361.472 321.042 361.472 319.348C361.472 317.654 360.099 316.281 358.405 316.281C356.711 316.281 355.338 317.654 355.338 319.348C355.338 321.042 356.711 322.415 358.405 322.415Z" fill="#B6E7FF"/>
<path d="M365.604 322.415C367.298 322.415 368.671 321.042 368.671 319.348C368.671 317.654 367.298 316.281 365.604 316.281C363.91 316.281 362.537 317.654 362.537 319.348C362.537 321.042 363.91 322.415 365.604 322.415Z" fill="#B6E7FF"/>
<path d="M372.801 322.415C374.495 322.415 375.868 321.042 375.868 319.348C375.868 317.654 374.495 316.281 372.801 316.281C371.108 316.281 369.734 317.654 369.734 319.348C369.734 321.042 371.108 322.415 372.801 322.415Z" fill="#B6E7FF"/>
<path d="M379.999 322.415C381.693 322.415 383.066 321.042 383.066 319.348C383.066 317.654 381.693 316.281 379.999 316.281C378.305 316.281 376.932 317.654 376.932 319.348C376.932 321.042 378.305 322.415 379.999 322.415Z" fill="#B6E7FF"/>
<path d="M494.356 355.088H340.691C334.87 355.088 330.176 350.331 330.176 344.572V344.51C330.176 338.689 334.933 333.994 340.691 333.994H494.356C500.177 333.994 504.872 338.751 504.872 344.51V344.572C504.872 350.331 500.177 355.088 494.356 355.088Z" fill="#F7F7F7"/>
<path d="M342.757 339.752H401.344C403.973 339.752 406.101 341.88 406.101 344.509C406.101 347.138 403.973 349.266 401.344 349.266H342.757C340.128 349.266 338 347.138 338 344.509C338 341.88 340.128 339.752 342.757 339.752Z" fill="#292929"/>
<path d="M344.071 347.577C345.765 347.577 347.138 346.204 347.138 344.51C347.138 342.817 345.765 341.443 344.071 341.443C342.377 341.443 341.004 342.817 341.004 344.51C341.004 346.204 342.377 347.577 344.071 347.577Z" fill="#B6E7FF"/>
<path d="M351.27 347.577C352.964 347.577 354.337 346.204 354.337 344.51C354.337 342.817 352.964 341.443 351.27 341.443C349.576 341.443 348.203 342.817 348.203 344.51C348.203 346.204 349.576 347.577 351.27 347.577Z" fill="#B6E7FF"/>
<path d="M358.405 347.577C360.099 347.577 361.472 346.204 361.472 344.51C361.472 342.817 360.099 341.443 358.405 341.443C356.711 341.443 355.338 342.817 355.338 344.51C355.338 346.204 356.711 347.577 358.405 347.577Z" fill="#B6E7FF"/>
<path d="M365.604 347.577C367.298 347.577 368.671 346.204 368.671 344.51C368.671 342.817 367.298 341.443 365.604 341.443C363.91 341.443 362.537 342.817 362.537 344.51C362.537 346.204 363.91 347.577 365.604 347.577Z" fill="#B6E7FF"/>
<path d="M372.801 347.577C374.495 347.577 375.868 346.204 375.868 344.51C375.868 342.817 374.495 341.443 372.801 341.443C371.108 341.443 369.734 342.817 369.734 344.51C369.734 346.204 371.108 347.577 372.801 347.577Z" fill="#B6E7FF"/>
<path d="M379.999 347.577C381.693 347.577 383.066 346.204 383.066 344.51C383.066 342.817 381.693 341.443 379.999 341.443C378.305 341.443 376.932 342.817 376.932 344.51C376.932 346.204 378.305 347.577 379.999 347.577Z" fill="#B6E7FF"/>
<path d="M512.008 368.107H326.984V424.19H512.008V368.107Z" fill="#CCCCCC"/>
<path d="M494.356 394.209H340.691C334.87 394.209 330.176 389.452 330.176 383.693V383.631C330.176 377.81 334.933 373.115 340.691 373.115H494.356C500.177 373.115 504.872 377.872 504.872 383.631V383.693C504.872 389.452 500.177 394.209 494.356 394.209Z" fill="#F7F7F7"/>
<path d="M342.757 378.873H401.344C403.973 378.873 406.101 381.001 406.101 383.63C406.101 386.259 403.973 388.387 401.344 388.387H342.757C340.128 388.387 338 386.259 338 383.63C338 381.001 340.128 378.873 342.757 378.873Z" fill="#292929"/>
<path d="M344.071 386.699C345.765 386.699 347.138 385.325 347.138 383.632C347.138 381.938 345.765 380.564 344.071 380.564C342.377 380.564 341.004 381.938 341.004 383.632C341.004 385.325 342.377 386.699 344.071 386.699Z" fill="#B6E7FF"/>
<path d="M351.27 386.699C352.964 386.699 354.337 385.325 354.337 383.632C354.337 381.938 352.964 380.564 351.27 380.564C349.576 380.564 348.203 381.938 348.203 383.632C348.203 385.325 349.576 386.699 351.27 386.699Z" fill="#B6E7FF"/>
<path d="M358.405 386.699C360.099 386.699 361.472 385.325 361.472 383.632C361.472 381.938 360.099 380.564 358.405 380.564C356.711 380.564 355.338 381.938 355.338 383.632C355.338 385.325 356.711 386.699 358.405 386.699Z" fill="#B6E7FF"/>
<path d="M365.604 386.699C367.298 386.699 368.671 385.325 368.671 383.632C368.671 381.938 367.298 380.564 365.604 380.564C363.91 380.564 362.537 381.938 362.537 383.632C362.537 385.325 363.91 386.699 365.604 386.699Z" fill="#B6E7FF"/>
<path d="M372.801 386.699C374.495 386.699 375.868 385.325 375.868 383.632C375.868 381.938 374.495 380.564 372.801 380.564C371.108 380.564 369.734 381.938 369.734 383.632C369.734 385.325 371.108 386.699 372.801 386.699Z" fill="#B6E7FF"/>
<path d="M379.999 386.699C381.693 386.699 383.066 385.325 383.066 383.632C383.066 381.938 381.693 380.564 379.999 380.564C378.305 380.564 376.932 381.938 376.932 383.632C376.932 385.325 378.305 386.699 379.999 386.699Z" fill="#B6E7FF"/>
<path d="M494.356 419.434H340.691C334.87 419.434 330.176 414.677 330.176 408.918V408.855C330.176 403.034 334.933 398.34 340.691 398.34H494.356C500.177 398.34 504.872 403.097 504.872 408.855V408.918C504.872 414.677 500.177 419.434 494.356 419.434Z" fill="#F7F7F7"/>
<path d="M342.757 404.035H401.344C403.973 404.035 406.101 406.163 406.101 408.792C406.101 411.421 403.973 413.549 401.344 413.549H342.757C340.128 413.549 338 411.421 338 408.792C338 406.226 340.128 404.035 342.757 404.035Z" fill="#292929"/>
<path d="M344.071 411.923C345.765 411.923 347.138 410.55 347.138 408.856C347.138 407.162 345.765 405.789 344.071 405.789C342.377 405.789 341.004 407.162 341.004 408.856C341.004 410.55 342.377 411.923 344.071 411.923Z" fill="#B6E7FF"/>
<path d="M351.27 411.923C352.964 411.923 354.337 410.55 354.337 408.856C354.337 407.162 352.964 405.789 351.27 405.789C349.576 405.789 348.203 407.162 348.203 408.856C348.203 410.55 349.576 411.923 351.27 411.923Z" fill="#B6E7FF"/>
<path d="M358.405 411.923C360.099 411.923 361.472 410.55 361.472 408.856C361.472 407.162 360.099 405.789 358.405 405.789C356.711 405.789 355.338 407.162 355.338 408.856C355.338 410.55 356.711 411.923 358.405 411.923Z" fill="#B6E7FF"/>
<path d="M365.604 411.923C367.298 411.923 368.671 410.55 368.671 408.856C368.671 407.162 367.298 405.789 365.604 405.789C363.91 405.789 362.537 407.162 362.537 408.856C362.537 410.55 363.91 411.923 365.604 411.923Z" fill="#B6E7FF"/>
<path d="M372.801 411.923C374.495 411.923 375.868 410.55 375.868 408.856C375.868 407.162 374.495 405.789 372.801 405.789C371.108 405.789 369.734 407.162 369.734 408.856C369.734 410.55 371.108 411.923 372.801 411.923Z" fill="#B6E7FF"/>
<path d="M379.999 411.923C381.693 411.923 383.066 410.55 383.066 408.856C383.066 407.162 381.693 405.789 379.999 405.789C378.305 405.789 376.932 407.162 376.932 408.856C376.932 410.55 378.305 411.923 379.999 411.923Z" fill="#B6E7FF"/>
<path d="M512.008 432.451H326.984V488.534H512.008V432.451Z" fill="#CCCCCC"/>
<path d="M494.356 458.553H340.691C334.87 458.553 330.176 453.796 330.176 448.037V447.975C330.176 442.153 334.933 437.459 340.691 437.459H494.356C500.177 437.459 504.872 442.216 504.872 447.975V448.037C504.872 453.796 500.177 458.553 494.356 458.553Z" fill="#F7F7F7"/>
<path d="M342.757 443.154H401.344C403.973 443.154 406.101 445.282 406.101 447.911C406.101 450.54 403.973 452.668 401.344 452.668H342.757C340.128 452.668 338 450.54 338 447.911C338 445.345 340.128 443.154 342.757 443.154Z" fill="#292929"/>
<path d="M344.071 451.042C345.765 451.042 347.138 449.669 347.138 447.975C347.138 446.281 345.765 444.908 344.071 444.908C342.377 444.908 341.004 446.281 341.004 447.975C341.004 449.669 342.377 451.042 344.071 451.042Z" fill="#B6E7FF"/>
<path d="M351.27 451.042C352.964 451.042 354.337 449.669 354.337 447.975C354.337 446.281 352.964 444.908 351.27 444.908C349.576 444.908 348.203 446.281 348.203 447.975C348.203 449.669 349.576 451.042 351.27 451.042Z" fill="#B6E7FF"/>
<path d="M358.405 451.042C360.099 451.042 361.472 449.669 361.472 447.975C361.472 446.281 360.099 444.908 358.405 444.908C356.711 444.908 355.338 446.281 355.338 447.975C355.338 449.669 356.711 451.042 358.405 451.042Z" fill="#B6E7FF"/>
<path d="M365.604 451.042C367.298 451.042 368.671 449.669 368.671 447.975C368.671 446.281 367.298 444.908 365.604 444.908C363.91 444.908 362.537 446.281 362.537 447.975C362.537 449.669 363.91 451.042 365.604 451.042Z" fill="#B6E7FF"/>
<path d="M372.801 451.042C374.495 451.042 375.868 449.669 375.868 447.975C375.868 446.281 374.495 444.908 372.801 444.908C371.108 444.908 369.734 446.281 369.734 447.975C369.734 449.669 371.108 451.042 372.801 451.042Z" fill="#B6E7FF"/>
<path d="M379.999 451.042C381.693 451.042 383.066 449.669 383.066 447.975C383.066 446.281 381.693 444.908 379.999 444.908C378.305 444.908 376.932 446.281 376.932 447.975C376.932 449.669 378.305 451.042 379.999 451.042Z" fill="#B6E7FF"/>
<path d="M494.356 483.715H340.691C334.87 483.715 330.176 478.958 330.176 473.199V473.137C330.176 467.316 334.933 462.621 340.691 462.621H494.356C500.177 462.621 504.872 467.378 504.872 473.137V473.199C504.872 478.958 500.177 483.715 494.356 483.715Z" fill="#F7F7F7"/>
<path d="M342.757 468.379H401.344C403.973 468.379 406.101 470.507 406.101 473.136C406.101 475.765 403.973 477.893 401.344 477.893H342.757C340.128 477.893 338 475.765 338 473.136C338 470.507 340.128 468.379 342.757 468.379Z" fill="#292929"/>
<path d="M344.071 476.204C345.765 476.204 347.138 474.831 347.138 473.137C347.138 471.443 345.765 470.07 344.071 470.07C342.377 470.07 341.004 471.443 341.004 473.137C341.004 474.831 342.377 476.204 344.071 476.204Z" fill="#B6E7FF"/>
<path d="M351.27 476.204C352.964 476.204 354.337 474.831 354.337 473.137C354.337 471.443 352.964 470.07 351.27 470.07C349.576 470.07 348.203 471.443 348.203 473.137C348.203 474.831 349.576 476.204 351.27 476.204Z" fill="#B6E7FF"/>
<path d="M358.405 476.204C360.099 476.204 361.472 474.831 361.472 473.137C361.472 471.443 360.099 470.07 358.405 470.07C356.711 470.07 355.338 471.443 355.338 473.137C355.338 474.831 356.711 476.204 358.405 476.204Z" fill="#B6E7FF"/>
<path d="M365.604 476.204C367.298 476.204 368.671 474.831 368.671 473.137C368.671 471.443 367.298 470.07 365.604 470.07C363.91 470.07 362.537 471.443 362.537 473.137C362.537 474.831 363.91 476.204 365.604 476.204Z" fill="#B6E7FF"/>
<path d="M372.801 476.204C374.495 476.204 375.868 474.831 375.868 473.137C375.868 471.443 374.495 470.07 372.801 470.07C371.108 470.07 369.734 471.443 369.734 473.137C369.734 474.831 371.108 476.204 372.801 476.204Z" fill="#B6E7FF"/>
<path d="M379.999 476.204C381.693 476.204 383.066 474.831 383.066 473.137C383.066 471.443 381.693 470.07 379.999 470.07C378.305 470.07 376.932 471.443 376.932 473.137C376.932 474.831 378.305 476.204 379.999 476.204Z" fill="#B6E7FF"/>
<path d="M640.009 578.231H35.9906C31.4839 578.231 27.8535 574.538 27.8535 570.093V521.584C27.8535 517.078 31.5465 513.447 35.9906 513.447H640.009C644.516 513.447 648.146 517.14 648.146 521.584V570.093C648.146 574.538 644.453 578.231 640.009 578.231Z" fill="#F2F2F2"/>
<path d="M256.128 512.758H160.611V534.665H256.128V512.758Z" fill="#072C3D"/>
<path d="M137.452 538.735C153.726 542.803 213.753 549.501 243.609 552.63C250.244 553.319 255.377 553.882 258.256 554.132C259.821 554.258 260.697 554.383 260.697 554.383C260.697 554.383 268.521 553.882 278.035 553.381C286.798 552.881 307.016 553.006 314.026 552.755C316.655 552.693 317.531 549.125 315.278 547.811C311.147 545.432 293.808 538.359 285.296 537.295C280.038 536.669 274.28 531.912 269.71 529.283C266.205 527.218 262.199 530.785 259.007 531.975C257.442 532.538 256.316 536.043 254.563 536.168C254.125 536.231 253.687 536.231 253.248 536.294C251.058 536.419 248.742 536.294 246.551 536.043C245.925 535.981 245.362 535.918 244.736 535.793C237.788 534.729 232.03 532.538 232.03 532.538C210.748 521.522 163.929 492.041 127.5 499.865C127.187 499.927 126.874 499.99 126.624 500.052C126.311 500.115 125.998 500.178 125.747 500.24C89.1307 509.441 115.607 533.226 137.452 538.735Z" fill="#FCD2B1"/>
<path d="M137.453 538.734C153.727 542.803 213.753 549.5 243.61 552.63L249.056 521.146C247.992 520.958 246.865 520.895 245.738 520.895C234.221 520.77 222.829 518.392 212.189 513.885C188.028 503.557 153.852 493.167 125.686 500.177C89.1315 509.441 115.608 533.226 137.453 538.734Z" fill="#0B4870"/>
<path d="M267.896 530.033C267.896 526.903 271.652 525.025 271.652 525.025L300.82 535.791L316.719 544.429L319.848 548.811L316.093 551.627L283.545 546.933L272.904 540.674L267.896 530.033Z" fill="#4F4F4F"/>
<path d="M253.188 536.293L258.257 554.132C259.822 554.258 260.699 554.383 260.699 554.383C260.699 554.383 268.523 553.882 278.037 553.381C286.8 552.881 307.017 553.006 314.027 552.755C316.656 552.693 317.533 549.125 315.279 547.811C311.148 545.432 293.81 538.359 285.297 537.295C280.04 536.669 274.281 531.912 269.712 529.283C266.207 527.218 262.201 530.785 259.009 531.975C257.444 532.538 256.317 536.043 254.565 536.168C254.064 536.231 253.626 536.293 253.188 536.293Z" fill="#1E1E1E"/>
<path d="M244.612 482.212L217.196 491.225C213.378 491.225 210.249 487.845 210.249 483.714C210.249 487.845 207.119 491.225 203.301 491.225L175.885 482.212C155.417 475.515 142.523 453.607 145.59 430.698L149.534 407.789C151.537 393.143 163.116 382.252 176.824 382.252L184.21 380.499L184.899 380.311L198.043 377.182L203.363 375.93H217.259L222.579 377.182L235.724 380.311L236.412 380.499L243.798 382.252C257.506 382.252 269.086 393.08 271.089 407.789L275.032 430.698C277.974 453.607 265.08 475.515 244.612 482.212Z" fill="#B6E7FF"/>
<path d="M263.076 509.19L158.734 505.685L152.1 415.113H270.963L263.076 509.19Z" fill="#B6E7FF"/>
<path d="M289.928 538.735C273.654 542.803 213.628 549.501 183.771 552.63C177.136 553.319 172.004 553.882 169.125 554.132C167.56 554.258 166.683 554.383 166.683 554.383C166.683 554.383 158.859 553.882 149.345 553.381C140.582 552.881 120.365 553.006 113.355 552.755C110.726 552.693 109.849 549.125 112.103 547.811C116.234 545.432 133.572 538.359 142.085 537.295C147.342 536.669 153.101 531.912 157.67 529.283C161.175 527.218 165.181 530.785 168.373 531.975C169.938 532.538 171.065 536.043 172.817 536.168C173.256 536.231 173.694 536.231 174.132 536.294C176.323 536.419 178.639 536.294 180.829 536.043C181.455 535.981 182.019 535.918 182.645 535.793C189.592 534.729 195.351 532.538 195.351 532.538C216.632 521.522 263.452 492.041 299.88 499.865C300.193 499.927 300.506 499.99 300.757 500.052C301.07 500.115 301.383 500.178 301.633 500.24C338.312 509.441 311.836 533.226 289.928 538.735Z" fill="#FCD2B1"/>
<path d="M289.929 538.734C273.655 542.803 213.628 549.5 183.772 552.63L178.326 521.146C179.39 520.958 180.517 520.895 181.644 520.895C193.161 520.77 204.552 518.392 215.193 513.885C239.354 503.557 273.53 493.167 301.696 500.177C338.313 509.441 311.836 533.226 289.929 538.734Z" fill="#0E538C"/>
<path d="M159.548 530.033C159.548 526.903 155.792 525.025 155.792 525.025L126.624 535.791L110.725 544.429L107.596 548.811L111.351 551.627L143.899 546.933L154.54 540.674L159.548 530.033Z" fill="#4F4F4F"/>
<path d="M174.195 536.293L169.125 554.132C167.56 554.258 166.683 554.383 166.683 554.383C166.683 554.383 158.859 553.882 149.345 553.381C140.582 552.881 120.365 553.006 113.355 552.755C110.726 552.693 109.849 549.125 112.103 547.811C116.234 545.432 133.572 538.359 142.085 537.295C147.342 536.669 153.101 531.912 157.67 529.283C161.175 527.218 165.181 530.785 168.373 531.975C169.938 532.538 171.065 536.043 172.818 536.168C173.318 536.231 173.756 536.293 174.195 536.293Z" fill="#1E1E1E"/>
<path d="M235.661 380.438L210.249 464.938L184.836 380.438L197.98 377.308L203.301 376.057H217.134L222.454 377.308L235.661 380.438Z" fill="#F7F7F7"/>
<path d="M238.695 350.157C239.805 347.251 238.742 344.145 236.32 343.22C233.898 342.294 231.035 343.9 229.925 346.806C228.814 349.712 229.877 352.818 232.299 353.744C234.721 354.669 237.584 353.063 238.695 350.157Z" fill="#FFE3CA"/>
<path d="M198.605 366.854L198.981 380.436L210.498 397.086L220.888 380.436L220.388 366.604L198.605 366.854Z" fill="#FCD2B1"/>
<path d="M234.158 340.064C234.158 366.666 222.641 376.055 209.559 376.055C196.477 376.055 186.775 366.666 186.775 340.064C186.775 325.605 197.416 313.901 210.498 313.901C223.58 313.838 234.158 325.605 234.158 340.064Z" fill="#FFE3CA"/>
<path d="M196.352 333.43C206.993 339.251 218.572 343.382 230.527 345.636C235.222 346.512 240.355 333.493 237.788 329.111C234.22 322.915 230.653 314.778 224.644 310.959C218.635 307.141 209.747 310.834 202.736 312.211C196.477 313.463 194.599 311.335 189.592 315.341C185.461 318.658 182.895 325.168 181.455 330.238C180.015 335.308 181.893 346.074 187.088 347.263C188.34 339.752 191.345 337.812 192.722 334.119L196.352 333.43Z" fill="#0E538C"/>
<path d="M189.392 353.765C191.814 352.839 192.877 349.733 191.767 346.827C190.657 343.921 187.793 342.315 185.371 343.241C182.95 344.166 181.886 347.272 182.997 350.178C184.107 353.084 186.971 354.69 189.392 353.765Z" fill="#FFE3CA"/>
<path d="M259.884 520.52H159.298C156.231 520.52 153.664 518.016 153.664 514.886L150.848 446.848C150.848 443.781 153.351 441.215 156.481 441.215H262.701C265.768 441.215 268.334 443.719 268.334 446.848L265.517 514.886C265.517 518.016 263.014 520.52 259.884 520.52Z" fill="#292929"/>
<path d="M209.434 491.539C215.31 491.539 220.074 486.775 220.074 480.899C220.074 475.022 215.31 470.258 209.434 470.258C203.557 470.258 198.793 475.022 198.793 480.899C198.793 486.775 203.557 491.539 209.434 491.539Z" fill="white"/>
<path d="M205.868 335.433C211.751 339.126 217.76 342.819 224.207 344.634C230.654 346.449 237.727 346.261 243.486 342.318C246.115 340.503 248.618 337.749 249.244 334.119C249.745 331.239 248.994 328.172 247.742 325.669C246.49 323.165 244.675 321.162 242.922 319.159C243.298 321.913 241.671 324.604 239.605 325.669C237.539 326.733 235.161 326.545 233.033 325.919C229.465 324.917 226.085 322.914 222.642 321.224C219.2 319.534 215.569 318.157 211.877 318.533C208.184 318.909 204.491 321.287 202.926 325.481" fill="#0E538C"/>
<path d="M600.763 538.671C611.967 538.671 616.661 529.72 618.539 520.269C620.604 509.566 619.102 498.236 619.102 498.236H582.485C582.485 498.236 582.423 498.674 582.36 499.426C581.609 506.123 579.418 538.671 600.763 538.671Z" fill="#B6E7FF"/>
<path d="M582.424 498.237C582.424 499.05 590.623 499.676 600.701 499.676C610.841 499.676 618.978 499.05 618.978 498.237C618.978 497.423 610.778 496.797 600.701 496.797C590.623 496.797 582.424 497.423 582.424 498.237Z" fill="#85DDFF"/>
<path d="M551.189 396.711C551.189 396.711 570.468 426.067 582.048 444.031C593.627 461.932 596.694 465.688 598.071 471.447C599.448 477.268 600.7 498.612 600.7 498.612H601.577C601.577 498.612 601.264 480.46 600.262 474.388C599.261 468.505 600.325 466.377 601.138 460.18C601.952 453.983 603.079 444.031 596.82 437.146C590.56 430.261 592.188 423.501 589.997 418.931C587.806 414.362 570.718 408.854 568.465 404.159C566.212 399.465 556.572 396.586 551.189 396.711Z" fill="#292929"/>
<path d="M551.189 396.711C551.189 396.711 557.261 403.596 561.392 405.975C565.523 408.291 567.464 406.225 570.656 411.921C573.848 417.554 573.973 420.058 576.852 422.937C579.732 425.817 583.174 425.942 583.487 432.326C583.738 438.648 582.11 444.031 582.11 444.031C582.11 444.031 552.441 398.276 551.189 396.711Z" fill="#616161"/>
<path d="M599.135 498.612H598.259C598.259 498.612 598.008 492.729 595.693 489.912C594.19 488.097 587.806 485.969 581.484 483.465C577.979 482.088 574.536 480.586 571.97 478.896C564.647 474.201 557.636 459.179 557.01 456.55C556.822 455.611 556.697 455.048 556.697 454.672C556.697 453.921 557.073 453.859 557.699 453.108C558.012 452.732 558.888 452.857 559.952 453.233C563.144 454.172 565.773 456.362 567.463 459.242C568.965 461.871 571.469 465.188 574.411 466.002C579.606 467.379 579.168 468.255 581.046 473.513C582.924 478.771 587.743 479.647 593.815 485.844C599.949 492.04 599.135 498.612 599.135 498.612Z" fill="#292929"/>
<path d="M581.484 483.464C577.979 482.087 574.536 480.585 571.97 478.895C564.647 474.201 557.636 459.179 557.01 456.55C556.822 455.611 556.697 455.047 556.697 454.672C556.697 454.86 557.073 457.238 560.891 458.803C564.834 460.43 565.648 460.43 566.149 462.934C566.649 465.438 567.088 468.129 569.153 468.63C571.219 469.131 572.533 466.815 574.161 470.633C575.788 474.451 576.602 475.703 578.104 476.266C579.606 476.767 580.733 476.016 581.108 478.958C581.296 480.71 581.421 482.463 581.484 483.464Z" fill="#616161"/>
<path d="M605.521 498.611H606.522C606.522 498.611 608.525 462.245 611.279 458.865C613.032 456.674 618.915 452.793 626.427 449.789C630.558 448.162 634.626 446.346 637.756 444.406C646.456 438.898 654.718 421.059 655.469 417.929C655.72 416.803 655.845 416.177 655.845 415.676C655.845 414.8 655.407 414.675 654.656 413.861C654.28 413.423 653.216 413.611 651.964 413.986C648.209 415.113 645.079 417.679 643.076 421.122C641.261 424.251 638.382 428.195 634.814 429.133C628.68 430.761 629.181 431.762 626.927 438.022C624.674 444.281 618.978 445.282 611.78 452.668C604.582 459.992 605.521 498.611 605.521 498.611Z" fill="#292929"/>
<path d="M626.426 449.851C630.557 448.224 634.625 446.409 637.755 444.468C646.455 438.96 654.718 421.121 655.469 417.992C655.719 416.865 655.844 416.239 655.844 415.738C655.844 415.926 655.406 418.743 650.899 420.62C646.205 422.561 645.266 422.561 644.64 425.503C644.014 428.445 643.514 431.637 641.072 432.263C638.631 432.889 637.067 430.135 635.126 434.641C633.186 439.148 632.247 440.65 630.494 441.276C628.679 441.902 627.365 440.963 626.927 444.468C626.614 446.596 626.488 448.599 626.426 449.851Z" fill="#616161"/>
<path d="M600.763 538.671C611.967 538.671 616.661 529.721 618.539 520.269C607.585 516.138 593.815 509.441 582.36 499.426C581.609 506.123 579.418 538.671 600.763 538.671Z" fill="#CCCCCC"/>
<path d="M66.3488 535.792C74.9866 535.792 78.6169 528.907 80.0566 521.584C81.684 513.322 80.4947 504.559 80.4947 504.559H52.1403C52.1403 504.559 52.0777 504.872 52.0151 505.497C51.5143 510.63 49.8243 535.792 66.3488 535.792Z" fill="#B6E7FF"/>
<path d="M52.1387 504.498C52.1387 505.124 58.4605 505.624 66.2846 505.624C74.1087 505.624 80.4305 505.124 80.4305 504.498C80.4305 503.872 74.1087 503.371 66.2846 503.371C58.5231 503.371 52.1387 503.872 52.1387 504.498Z" fill="#85DDFF"/>
<path d="M19.9043 410.483C19.9043 410.483 37.8058 437.71 48.5091 454.297C59.2124 470.885 62.0291 474.327 63.3435 479.71C64.5954 485.093 65.7847 504.872 65.7847 504.872H67.1617C67.1617 504.872 68.038 488.16 66.4106 482.652C64.7206 477.144 65.4091 475.016 66.1602 469.257C66.9113 463.499 67.9754 454.297 62.1543 447.913C56.3332 441.529 57.898 435.269 55.8324 431.076C53.7669 426.882 37.931 421.749 35.928 417.43C33.7999 413.049 24.8491 410.358 19.9043 410.483Z" fill="#292929"/>
<path d="M23.7852 410.482C23.7852 410.482 29.4185 416.867 33.2366 419.058C37.0548 421.248 38.87 419.308 41.8118 424.566C44.7537 429.824 44.8789 432.077 47.5703 434.768C50.2618 437.46 53.4541 437.585 53.7044 443.469C53.9548 449.352 52.4526 454.297 52.4526 454.297C52.4526 454.297 24.9744 411.859 23.7852 410.482Z" fill="#616161"/>
<path d="M71.6684 504.496L72.6699 504.183C72.6699 504.183 70.9173 497.172 72.6699 492.916C73.7965 490.225 80.6191 485.468 87.1914 480.272C90.8217 477.393 94.3895 474.389 96.8932 471.51C103.904 463.372 106.845 443.155 106.658 439.775C106.595 438.586 106.47 437.897 106.345 437.459C106.094 436.583 105.594 436.583 104.592 435.957C104.091 435.644 103.09 436.082 101.901 436.896C98.5206 439.149 96.0795 442.654 95.1406 446.66C94.2643 450.353 92.5743 455.11 89.2569 457.113C83.6236 460.618 84.4373 461.432 84.0617 468.38C83.6862 475.265 78.3032 478.019 73.3584 487.533C68.4136 497.047 71.6684 504.496 71.6684 504.496Z" fill="#292929"/>
<path d="M87.1911 480.337C90.8215 477.458 94.3893 474.453 96.893 471.574C103.903 463.437 106.845 443.219 106.657 439.839C106.595 438.65 106.47 437.962 106.344 437.523C106.407 437.711 106.845 440.653 102.839 443.908C98.7082 447.225 97.8319 447.538 98.0822 450.668C98.3326 453.798 98.7708 457.115 96.5174 458.492C94.2641 459.869 91.8856 457.553 91.3222 462.623C90.6963 467.693 90.2582 469.508 88.6308 470.635C87.0034 471.762 85.376 471.261 86.0645 474.891C86.44 477.019 86.8782 479.085 87.1911 480.337Z" fill="#616161"/>
<path d="M66.3482 535.793C74.986 535.793 78.6163 528.908 80.056 521.584C71.606 518.392 60.9026 513.197 52.0771 505.436C51.5137 510.631 49.8237 535.793 66.3482 535.793Z" fill="#CCCCCC"/>
</svg>
