<svg width="103" height="118" viewBox="0 0 103 118" fill="none" xmlns="http://www.w3.org/2000/svg">
<path d="M93.3691 78.262L46.0921 63.3183C44.1078 62.6479 42.4186 61.3069 41.3196 59.524L27.4805 36.7886L47.7915 29.459L58.644 53.1697L95.5264 70.8663" fill="#F99A9A"/>
<path opacity="0.15" d="M88.1388 79.42L89.3395 76.5044C81.8094 73.8682 58.5321 63.0744 49.6283 59.5646C47.1861 58.6046 45.156 56.8318 43.8636 54.5512L32.7109 35.1631L28.8848 39.0946L40.2868 58.3607C41.6707 60.6668 43.8229 62.4141 46.3669 63.2929L88.1388 79.42Z" fill="black"/>
<path opacity="0.2" d="M28.8856 39.0933L23.752 31.4691L24.1793 21.356L33.592 36.6958L28.8856 39.0933Z" fill="black"/>
<path d="M91.4555 14.5728C91.4555 13.1303 91.7404 11.7537 92.239 10.489C80.4452 2.96129 65.2679 0 51.2863 0C37.3047 0 22.1274 2.96129 10.3336 10.489C10.8322 11.7537 11.1171 13.1303 11.1171 14.5728C11.1171 20.7138 6.14113 25.6916 0 25.717C0.274748 43.7134 2.04024 65.1586 10.6948 81.6108C20.0362 99.3684 38.7293 111.691 51.2863 117.36C63.8433 111.691 82.5363 99.3684 91.8777 81.6108C100.532 65.1586 102.298 43.7134 102.573 25.717C96.4263 25.6916 91.4555 20.7138 91.4555 14.5728Z" fill="#F2F2F2"/>
<path opacity="0.5" d="M91.4555 14.5728C91.4555 13.1303 91.7404 11.7537 92.239 10.489C80.4452 2.96129 65.2679 0 51.2863 0C37.3047 0 22.1274 2.96129 10.3336 10.489C10.8322 11.7537 11.1171 13.1303 11.1171 14.5728C11.1171 20.7138 6.14113 25.6916 0 25.717C0.274748 43.7134 2.04024 65.1586 10.6948 81.6108C20.0362 99.3684 38.7293 111.691 51.2863 117.36C63.8433 111.691 82.5363 99.3684 91.8777 81.6108C100.532 65.1586 102.298 43.7134 102.573 25.717C96.4263 25.6916 91.4555 20.7138 91.4555 14.5728Z" fill="#73D578"/>
<path d="M51.2823 108.066C39.3562 101.996 25.283 91.3397 18.1141 77.7116C11.0012 64.2004 9.08815 46.2955 8.54883 32.0833C14.9189 28.9493 19.3556 22.4477 19.493 14.9352C28.2238 10.6736 39.2952 8.35742 51.2823 8.35742C63.2695 8.35742 74.3408 10.6685 83.0717 14.9352C83.2141 22.4477 87.6457 28.9493 94.0158 32.0833C93.4765 46.2904 91.5583 64.1953 84.4505 77.7116C77.2816 91.3397 63.2084 101.996 51.2823 108.066Z" fill="#F2F2F2"/>
<path d="M51.2823 108.066C39.3562 101.996 25.283 91.3397 18.1141 77.7116C11.0012 64.2004 9.08815 46.2955 8.54883 32.0833C14.9189 28.9493 19.3556 22.4477 19.493 14.9352C28.2238 10.6736 39.2952 8.35742 51.2823 8.35742C63.2695 8.35742 74.3408 10.6685 83.0717 14.9352C83.2141 22.4477 87.6457 28.9493 94.0158 32.0833C93.4765 46.2904 91.5583 64.1953 84.4505 77.7116C77.2816 91.3397 63.2084 101.996 51.2823 108.066Z" fill="#F2F2F2"/>
<path opacity="0.7" d="M51.2817 104.885C40.1188 99.2014 26.9411 89.2255 20.2302 76.466C13.5752 63.8132 11.7791 47.0562 11.2754 33.7533C17.2435 30.8174 21.3902 24.7322 21.5225 17.6973C29.6988 13.7049 40.0629 11.541 51.2817 11.541C62.5006 11.541 72.8698 13.7049 81.041 17.6973C81.1733 24.7272 85.325 30.8174 91.2881 33.7533C90.7844 47.0562 88.9884 63.8183 82.3334 76.466C75.6224 89.2255 62.4497 99.2014 51.2817 104.885Z" fill="#73D578"/>
<path d="M80.4729 40.0677L76.2397 35.8417C75.7716 35.4302 75.1814 35.2271 74.6065 35.2271H71.1722L71.7572 37.1572L48.1493 60.8374L37.8055 50.511C36.8642 49.6881 35.4549 49.6881 34.6306 50.511L30.3975 54.737C29.5732 55.6767 29.5732 57.0837 30.3975 57.9066L45.5188 73.0026L44.6386 74.6889H48.0322C48.6072 74.694 49.2025 74.4604 49.6757 73.988L80.4729 43.2423C81.2971 42.2976 81.2971 40.8906 80.4729 40.0677Z" fill="#F2F2F2"/>
<path opacity="0.5" d="M80.4729 40.0677L76.2397 35.8417C75.7716 35.4302 75.1814 35.2271 74.6065 35.2271H71.1722L71.7572 37.1572L48.1493 60.8374L37.8055 50.511C36.8642 49.6881 35.4549 49.6881 34.6306 50.511L30.3975 54.737C29.5732 55.6767 29.5732 57.0837 30.3975 57.9066L45.5188 73.0026L44.6386 74.6889H48.0322C48.6072 74.694 49.2025 74.4604 49.6757 73.988L80.4729 43.2423C81.2971 42.2976 81.2971 40.8906 80.4729 40.0677Z" fill="#73D578"/>
<path d="M94.0204 32.1018C94.0204 32.0967 94.0204 32.0916 94.0204 32.0916C93.8576 32.0103 93.6999 31.9189 93.5371 31.8325C93.6948 31.924 93.8576 32.0103 94.0204 32.1018Z" fill="#FFD16E"/>
<path d="M43.1746 73.9772L27.0713 57.9008C26.2471 57.078 26.2471 55.671 27.0713 54.7313L31.3045 50.5052C32.1287 49.6823 33.5381 49.6823 34.4793 50.5052L44.8231 60.8316L69.7387 35.8359C70.563 35.013 71.9723 35.013 72.9136 35.8359L77.1467 40.062C77.971 40.8848 77.971 42.2918 77.1467 43.2315L46.3495 73.9772C45.4082 74.9168 43.9989 74.9168 43.1746 73.9772Z" fill="white"/>
</svg>
